<?xml version="1.0" standalone="no"?>
<!DOCTYPE svg PUBLIC "-//W3C//DTD SVG 20010904//EN"
 "http://www.w3.org/TR/2001/REC-SVG-20010904/DTD/svg10.dtd">
<svg version="1.0" xmlns="http://www.w3.org/2000/svg"
 width="540.000000pt" height="360.000000pt" viewBox="0 0 540.000000 360.000000"
 preserveAspectRatio="xMidYMid meet">

<g transform="translate(0.000000,360.000000) scale(0.100000,-0.100000)"
fill="#000000" stroke="none">
<path d="M0 1800 l0 -1800 2700 0 2700 0 0 1800 0 1800 -2700 0 -2700 0 0
-1800z m2758 527 c2 -21 -3 -46 -10 -55 -10 -12 -10 -14 0 -8 7 4 12 2 12 -5
0 -8 4 -8 15 1 8 7 14 20 13 29 -2 11 6 17 26 19 44 5 53 -13 20 -41 l-28 -25
24 -36 c14 -20 28 -36 33 -36 4 0 7 -7 7 -15 0 -10 -10 -15 -33 -15 -31 0 -34
3 -34 30 0 17 4 30 8 30 9 0 20 -30 15 -39 -3 -4 5 -8 17 -8 12 -1 17 1 11 5
-6 4 -16 17 -23 29 -8 15 -19 21 -39 20 -24 -2 -27 -7 -27 -37 0 -36 -18 -49
-52 -36 -12 5 -13 9 -3 21 7 9 15 48 18 88 3 39 9 75 15 78 6 4 5 14 -3 25 -9
15 -10 16 -6 2 3 -12 1 -15 -10 -11 -25 9 -12 36 16 31 10 -2 16 -17 18 -41z
m277 22 c0 -7 -8 -15 -17 -17 -18 -3 -25 18 -11 32 10 10 28 1 28 -15z m-492
-57 c18 -16 23 -52 7 -52 -5 0 -10 -5 -10 -11 0 -5 5 -7 10 -4 16 10 12 -38
-6 -63 -12 -17 -24 -22 -57 -21 -51 2 -75 21 -83 66 -9 46 9 81 49 98 35 15
62 11 90 -13z m171 -5 c8 -12 8 -22 0 -34 -16 -26 -39 -23 -37 5 2 12 -2 22
-7 22 -5 0 -7 7 -3 16 3 10 -4 6 -21 -9 -32 -30 -37 -102 -8 -123 16 -11 15
-13 -12 -24 -39 -14 -58 -6 -52 22 15 73 16 112 4 119 -10 6 -10 11 -1 20 10
10 18 10 38 1 15 -7 24 -8 21 -3 -8 12 24 19 49 11 10 -4 24 -14 29 -23z m335
-49 c-2 -59 9 -86 30 -74 6 4 11 18 11 32 0 15 6 24 15 24 8 0 15 5 15 11 0 5
-4 8 -9 5 -10 -6 -24 51 -16 65 3 4 12 6 20 3 7 -3 23 0 35 6 26 14 61 4 53
-16 -3 -7 0 -14 6 -14 6 0 11 6 11 13 2 34 28 -46 32 -96 4 -54 3 -58 -19 -63
-30 -8 -53 10 -35 28 7 7 12 33 12 60 0 50 -21 75 -54 62 -28 -11 -39 -95 -17
-117 6 -6 11 -14 11 -18 0 -13 -52 -20 -65 -9 -10 8 -19 8 -35 0 -26 -14 -70
-5 -70 14 0 8 4 16 9 18 11 4 18 94 8 104 -13 13 -7 32 11 36 32 8 43 -12 41
-74z m-819 57 c0 -8 -4 -15 -8 -15 -4 0 -6 -17 -4 -37 5 -44 -4 -42 -12 2 -2
17 -5 32 -6 35 -1 3 -2 8 -1 13 0 4 -4 7 -10 7 -6 0 -8 -9 -4 -20 8 -24 1 -25
-24 -3 -27 23 -18 33 30 33 28 0 39 -4 39 -15z m82 -40 c10 -31 17 -41 17 -27
1 12 7 22 16 22 8 0 15 5 15 12 0 6 -3 8 -7 5 -6 -7 -32 21 -33 36 0 4 12 7
28 7 20 0 23 -3 12 -10 -8 -5 -12 -12 -8 -15 3 -3 13 2 22 11 9 9 20 13 24 9
4 -3 -1 -13 -11 -20 -10 -7 -21 -29 -24 -49 -3 -19 -9 -33 -13 -31 -5 3 -6 -4
-3 -14 6 -25 -14 -62 -31 -55 -26 10 -48 84 -25 84 5 0 7 -4 4 -10 -3 -5 -1
-10 5 -10 6 0 8 -4 5 -10 -3 -5 -1 -10 5 -10 8 0 9 7 5 18 -7 17 -13 39 -14
55 -1 4 -6 7 -12 7 -6 0 -9 -7 -6 -15 4 -8 2 -17 -3 -20 -5 -3 -14 -24 -20
-45 -15 -58 -43 -54 -64 7 -18 54 -19 63 -7 63 5 0 9 -6 8 -12 0 -7 1 -22 2
-33 2 -19 3 -19 21 4 11 13 20 32 20 43 0 30 20 60 38 56 10 -2 24 -23 34 -53z
m418 -220 c10 -12 10 -19 1 -28 -9 -9 -14 -9 -21 3 -8 13 -11 13 -22 1 -9 -10
-9 -12 -1 -7 17 10 27 -37 13 -63 -8 -16 -20 -21 -50 -21 -22 0 -40 -4 -40
-10 0 -5 18 -10 39 -10 53 0 86 -27 77 -64 -8 -32 -47 -50 -92 -41 -43 8 -68
37 -58 67 4 13 7 34 5 47 -2 14 1 21 7 17 6 -3 14 -1 19 6 11 19 13 39 2 32
-5 -3 -7 -9 -4 -14 3 -5 1 -11 -5 -15 -17 -10 -11 47 7 67 9 10 26 18 38 18
13 0 25 7 29 15 7 20 40 19 56 0z m-523 -20 c26 -17 31 -62 11 -84 -10 -11
-10 -13 0 -7 20 12 14 -32 -8 -54 -12 -12 -33 -20 -55 -20 -19 0 -35 -4 -35
-10 0 -5 5 -10 10 -10 6 0 10 -7 10 -16 0 -11 -8 -14 -32 -12 -23 2 -32 7 -29
18 7 33 -1 175 -11 181 -22 14 3 25 59 27 36 1 66 -4 80 -13z m157 9 c38 -14
43 -74 7 -74 -24 0 -33 11 -20 26 13 16 -4 27 -31 19 -17 -5 -20 -15 -20 -61
0 -30 5 -54 10 -54 6 0 10 -7 10 -15 0 -10 -10 -15 -34 -15 -35 0 -55 13 -36
25 14 9 13 108 -2 123 -9 9 -7 13 5 18 9 3 23 4 30 1 8 -3 20 -1 28 4 17 10
32 11 53 3z m181 -19 c46 -45 20 -155 -36 -155 -25 0 -24 8 6 36 30 27 33 74
8 96 -20 17 -66 31 -58 18 3 -5 1 -11 -5 -15 -16 -10 -12 -77 7 -97 12 -14 14
-21 5 -30 -15 -15 -56 19 -43 36 5 6 7 27 6 46 -1 19 3 42 9 50 9 13 9 13 -6
2 -11 -9 -16 -25 -14 -48 1 -19 -1 -37 -6 -40 -13 -8 -9 71 5 88 34 43 87 49
122 13z m337 8 c21 -19 23 -46 5 -61 -19 -16 -37 0 -30 26 3 12 10 19 16 15 6
-3 7 -1 3 5 -5 8 -15 8 -34 1 -34 -13 -42 -26 -42 -66 0 -18 -3 -33 -8 -33 -4
0 -13 -9 -19 -19 -11 -17 -10 -20 6 -18 11 1 17 7 14 14 -7 17 11 17 26 0 15
-19 4 -27 -36 -27 -32 0 -43 12 -23 25 14 9 13 108 -2 123 -17 17 19 28 43 13
11 -6 19 -8 18 -4 -5 28 34 32 63 6z m153 -8 c44 -43 26 -75 -42 -75 -41 0
-43 -1 -41 -28 2 -24 5 -27 30 -24 15 2 33 10 39 18 16 19 29 17 29 -4 0 -28
-21 -42 -61 -42 -39 0 -66 21 -53 41 4 7 3 9 -4 5 -6 -3 -14 3 -17 15 -16 48
28 119 72 119 13 0 35 -11 48 -25z m152 -8 c2 -30 -11 -35 -34 -12 -16 16 -34
16 -40 -1 -2 -5 10 -15 27 -21 21 -8 28 -16 24 -27 -8 -20 -12 -20 -52 4 -42
26 -49 46 -26 71 13 15 27 19 58 16 36 -3 41 -7 43 -30z m147 13 c12 -12 -1
-43 -17 -38 -6 3 -17 14 -22 25 -10 19 -11 19 -29 2 -18 -17 -17 -18 17 -33
39 -16 57 -41 57 -80 0 -36 -15 -41 -95 -34 -26 3 -30 7 -33 36 -3 33 6 40 26
20 17 -17 15 -29 -3 -22 -8 4 -15 1 -15 -4 0 -6 9 -9 21 -7 11 2 30 0 43 -5
20 -7 23 -5 22 16 -1 18 -12 31 -41 47 -70 39 -57 105 20 92 22 -3 44 -10 49
-15z m-138 -97 c11 -43 -6 -58 -70 -60 -52 -1 -56 0 -62 24 -9 34 13 55 31 29
8 -10 13 -22 10 -25 -2 -4 8 -6 23 -5 43 2 44 3 38 19 -6 18 2 45 15 45 5 0
12 -12 15 -27z m-1704 -175 c81 -11 89 -10 109 8 20 17 22 17 16 2 -8 -23 24
-24 58 -2 23 15 25 15 25 -1 0 -20 29 -19 215 5 95 13 231 10 438 -10 106 -10
130 -10 144 1 13 11 17 11 20 2 3 -9 32 -13 96 -13 51 -1 137 -5 192 -9 81 -7
104 -5 123 7 20 13 22 13 22 -2 0 -19 60 -22 158 -6 34 6 127 12 205 15 78 2
216 8 307 13 91 5 215 7 275 5 61 -2 162 -5 225 -7 l115 -4 3 -33 c2 -19 1
-79 -3 -134 l-7 -100 -431 -3 c-936 -6 -1351 -12 -1361 -22 -14 -14 -26 -12
-26 5 0 11 -13 15 -52 16 -29 1 -78 2 -108 4 -30 1 -61 -2 -67 -7 -9 -7 -13
-7 -13 1 0 16 -46 13 -60 -4 -7 -8 -19 -15 -26 -15 -8 0 -11 6 -8 15 5 12 -4
15 -47 16 -30 0 -137 3 -239 6 -102 3 -266 5 -364 3 l-179 -2 5 127 c4 93 9
129 19 136 15 10 72 6 221 -13z m-104 -347 c-4 -32 -34 -40 -43 -11 -8 25 11
51 31 43 9 -3 14 -16 12 -32z m2775 24 c20 -19 10 -55 -14 -55 -14 0 -19 7
-19 28 0 25 7 42 16 42 1 0 9 -7 17 -15z m-2843 -14 c14 -27 13 -84 -2 -99
-17 -17 -53 -15 -68 3 -16 20 -17 80 -1 99 18 22 58 20 71 -3z m85 -55 c-14
-32 -28 -56 -31 -53 -3 3 7 33 22 68 15 34 29 58 31 52 2 -5 -8 -36 -22 -67z
m2475 15 c0 -38 4 -61 13 -64 6 -3 -4 -6 -23 -6 -24 0 -31 2 -21 8 10 6 12 24
9 65 -4 42 -1 56 9 56 9 0 13 -17 13 -59z m120 29 c19 -45 3 -94 -32 -98 -45
-5 -74 60 -48 109 7 12 21 19 39 19 22 0 31 -7 41 -30z m100 15 c16 -20 17
-80 1 -99 -18 -22 -58 -20 -71 3 -24 46 -5 111 34 111 13 0 29 -7 36 -15z
m104 -22 c-9 -21 -21 -50 -27 -65 -6 -16 -15 -28 -19 -28 -7 0 1 21 39 118 3
6 9 12 14 12 5 0 2 -17 -7 -37z m-2749 -59 c0 -22 -5 -29 -20 -29 -23 0 -32
30 -14 51 18 22 34 11 34 -22z m2780 0 c0 -19 -6 -30 -16 -32 -21 -4 -32 24
-18 49 14 28 34 18 34 -17z"/>
<path d="M2806 2289 c2 -4 -3 -12 -11 -19 -8 -7 -12 -16 -10 -21 3 -4 -3 -13
-14 -18 -11 -6 -21 -8 -24 -3 -2 4 -3 2 -1 -4 1 -6 -3 -17 -9 -23 -7 -7 -7
-11 -1 -11 6 0 19 9 28 19 10 11 23 18 29 17 7 -2 8 -1 4 2 -4 2 3 18 16 36
22 28 23 32 7 32 -10 0 -17 -3 -14 -7z"/>
<path d="M2724 2158 c-13 -16 -14 -19 -2 -10 13 10 17 10 21 0 3 -7 4 -3 4 10
-1 12 -2 22 -3 22 0 0 -9 -10 -20 -22z"/>
<path d="M2456 2268 c-33 -46 -5 -115 41 -103 16 4 22 2 18 -4 -4 -7 1 -8 11
-4 10 4 13 8 7 10 -7 3 -9 19 -6 44 4 29 1 44 -12 59 -23 26 -40 25 -59 -2z"/>
<path d="M2527 2284 c-3 -5 1 -15 9 -22 16 -14 18 -5 5 17 -5 7 -11 9 -14 5z"/>
<path d="M2419 2273 c0 -5 -2 -19 -3 -33 -4 -33 13 -82 26 -74 7 4 6 9 -2 14
-14 9 -19 70 -7 88 6 7 5 12 -2 12 -6 0 -11 -3 -12 -7z"/>
<path d="M2599 2238 c-1 -7 -2 -24 -3 -38 0 -14 -5 -31 -10 -38 -4 -7 -5 -16
-2 -19 3 -4 6 0 6 8 0 12 2 12 9 0 6 -9 11 -10 15 -2 4 6 3 11 -2 11 -4 0 -7
20 -6 45 1 25 1 45 -2 45 -2 0 -5 -6 -5 -12z"/>
<path d="M3019 2310 c0 -3 -2 -13 -4 -22 -2 -10 1 -18 6 -18 6 0 7 -6 2 -12
-4 -7 -8 -33 -9 -58 0 -30 -5 -44 -13 -42 -7 1 -10 -1 -7 -6 3 -5 15 -8 28 -6
34 4 34 4 15 15 -10 6 -14 15 -10 22 11 18 12 37 3 37 -5 0 -7 8 -5 18 2 9 4
17 5 17 7 0 6 35 -1 46 -5 8 -9 12 -10 9z"/>
<path d="M3144 2295 c-12 -8 -23 -12 -26 -10 -2 2 -4 -6 -5 -18 -2 -21 -1 -21
12 -4 7 10 22 25 32 32 24 19 13 19 -13 0z"/>
<path d="M3223 2256 c0 -18 3 -24 9 -18 7 7 7 16 0 28 -8 14 -9 13 -9 -10z"/>
<path d="M3109 2208 c0 -2 -2 -12 -4 -22 -2 -10 -9 -22 -15 -26 -8 -5 -6 -9 6
-14 9 -4 22 -2 28 4 7 7 7 10 -1 10 -5 0 -9 11 -8 25 2 14 1 25 -1 25 -2 0 -4
-1 -5 -2z"/>
<path d="M3225 2180 c-3 -5 -1 -10 4 -10 6 0 11 5 11 10 0 6 -2 10 -4 10 -3 0
-8 -4 -11 -10z"/>
<path d="M2269 2291 c10 -7 11 -9 1 -13 -8 -2 -14 -12 -16 -21 -1 -9 2 -15 7
-11 5 3 7 10 4 15 -4 5 4 9 16 9 18 0 19 2 9 15 -7 8 -18 15 -24 15 -6 0 -5
-4 3 -9z"/>
<path d="M2249 2228 c-5 -18 -6 -38 -1 -34 7 8 12 36 6 36 -2 0 -4 -1 -5 -2z"/>
<path d="M2210 2181 c0 -6 5 -11 11 -11 5 0 7 -6 3 -12 -5 -9 -2 -9 9 1 9 7
17 16 17 19 0 3 -3 2 -7 -1 -3 -4 -12 -2 -20 4 -9 9 -13 8 -13 0z"/>
<path d="M2300 2166 c0 -2 6 -9 13 -15 10 -8 14 -7 14 4 0 8 -6 15 -14 15 -7
0 -13 -2 -13 -4z"/>
<path d="M2639 2008 c-1 -2 -3 -20 -4 -40 -2 -33 0 -36 19 -29 29 11 33 41 7
48 -11 3 -18 9 -15 14 3 5 3 9 0 9 -3 0 -7 -1 -7 -2z"/>
<path d="M2593 1900 c2 -8 1 -22 -3 -30 -4 -8 -4 -24 1 -35 l9 -20 -2 20 c-2
11 1 26 5 32 5 7 3 21 -3 30 -7 12 -10 13 -7 3z"/>
<path d="M2623 1878 c3 -9 3 -19 -1 -22 -3 -4 -6 -14 -7 -24 -1 -15 4 -17 33
-13 39 7 72 44 51 57 -8 4 -9 3 -5 -4 9 -15 -55 -3 -67 12 -6 7 -7 5 -4 -6z"/>
<path d="M2702 1830 c-7 -11 -8 -20 -3 -20 9 0 24 30 18 36 -1 2 -8 -6 -15
-16z"/>
<path d="M2081 2006 c9 -7 14 -31 14 -68 0 -31 3 -54 7 -52 13 8 9 -11 -4 -24
-8 -8 -8 -12 -1 -12 14 0 25 29 17 42 -11 17 -12 88 -3 94 5 3 9 10 9 15 0 6
-4 7 -10 4 -5 -3 -10 -2 -10 3 0 5 -7 9 -16 9 -14 0 -14 -2 -3 -11z"/>
<path d="M2139 2015 c-1 -3 -2 -8 -3 -12 -1 -5 -5 -13 -9 -20 -15 -24 -11 -85
7 -98 13 -10 14 -14 4 -18 -7 -2 -1 -4 14 -3 14 0 25 3 23 5 -3 2 2 13 10 25
29 41 13 91 -35 109 -11 4 -9 6 5 6 26 1 38 -8 52 -39 l12 -25 -3 24 c-1 13
-11 30 -21 37 -18 14 -54 19 -56 9z"/>
<path d="M2200 1885 c-7 -9 -8 -15 -2 -15 5 0 12 7 16 15 3 8 4 15 2 15 -2 0
-9 -7 -16 -15z"/>
<path d="M2089 1823 c-13 -16 -12 -17 4 -4 9 7 17 15 17 17 0 8 -8 3 -21 -13z"/>
<path d="M2331 2016 c2 -2 15 -9 29 -15 24 -11 24 -11 6 3 -16 13 -49 24 -35
12z"/>
<path d="M2273 1995 c0 -8 4 -12 9 -9 5 3 6 10 3 15 -9 13 -12 11 -12 -6z"/>
<path d="M2365 1970 c-3 -5 -1 -10 4 -10 6 0 11 5 11 10 0 6 -2 10 -4 10 -3 0
-8 -4 -11 -10z"/>
<path d="M2276 1953 c-6 -14 -5 -15 5 -6 7 7 10 15 7 18 -3 3 -9 -2 -12 -12z"/>
<path d="M2271 1882 c-8 -15 -5 -18 17 -19 16 0 19 1 9 4 -11 3 -16 11 -13 19
8 20 -2 17 -13 -4z"/>
<path d="M2505 2008 c11 -6 24 -17 28 -25 4 -7 13 -13 20 -13 7 0 6 4 -3 10
-8 5 -10 10 -5 10 12 1 -36 29 -50 29 -5 0 -1 -5 10 -11z"/>
<path d="M2551 1944 c0 -11 3 -14 6 -6 3 7 2 16 -1 19 -3 4 -6 -2 -5 -13z"/>
<path d="M2446 1877 c3 -10 9 -15 12 -12 3 3 0 11 -7 18 -10 9 -11 8 -5 -6z"/>
<path d="M2515 1870 c-3 -5 -2 -10 4 -10 5 0 13 5 16 10 3 6 2 10 -4 10 -5 0
-13 -4 -16 -10z"/>
<path d="M2990 2000 c-14 -3 -26 -14 -28 -23 -5 -25 44 -23 58 2 12 24 3 30
-30 21z"/>
<path d="M2935 1990 c-3 -5 -4 -10 0 -10 3 0 1 -8 -4 -18 -14 -26 2 -48 19
-27 9 10 9 15 1 15 -7 0 -10 10 -7 25 5 26 1 32 -9 15z"/>
<path d="M3021 1958 c-13 -20 -12 -22 1 -11 8 7 18 10 22 6 4 -4 4 0 0 10 -8
21 -6 21 -23 -5z"/>
<path d="M3027 1893 c-4 -3 -7 -11 -7 -17 0 -6 5 -5 12 2 6 6 9 14 7 17 -3 3
-9 2 -12 -2z"/>
<path d="M3093 1997 c-9 -18 -6 -25 13 -40 13 -10 24 -14 24 -9 0 6 -7 13 -16
16 -11 4 -14 13 -10 31 8 31 3 32 -11 2z"/>
<path d="M3160 2001 c0 -6 4 -13 10 -16 6 -3 7 1 4 9 -7 18 -14 21 -14 7z"/>
<path d="M3233 1994 c-3 -8 -2 -19 3 -24 5 -5 10 1 10 16 2 27 -4 31 -13 8z"/>
<path d="M3300 2000 c0 -6 4 -9 9 -6 5 4 12 1 14 -4 3 -6 4 -5 3 2 -3 15 -26
23 -26 8z"/>
<path d="M3260 1948 c0 -6 3 -9 6 -5 4 3 12 1 20 -6 34 -30 44 -37 44 -30 0
14 -14 30 -37 42 -27 14 -33 14 -33 -1z"/>
<path d="M1280 1731 c0 -5 -3 -18 -7 -28 -6 -17 -5 -17 15 1 26 22 28 36 7 36
-8 0 -15 -4 -15 -9z"/>
<path d="M1356 1725 c4 -8 10 -12 15 -9 14 8 10 24 -6 24 -9 0 -12 -6 -9 -15z"/>
<path d="M1943 1691 c-18 -28 -33 -53 -33 -56 0 -3 23 19 51 48 57 57 80 51
32 -9 -57 -72 -55 -78 6 -16 34 34 69 62 78 62 13 0 14 -3 2 -17 -13 -17 -13
-17 7 0 47 40 46 9 -3 -52 -34 -42 -31 -41 29 17 100 94 111 80 24 -33 l-31
-40 54 48 c47 41 81 59 81 41 0 -13 -26 -53 -73 -112 -27 -35 -47 -65 -45 -68
3 -2 47 40 97 95 86 93 123 122 139 107 3 -4 -12 -24 -33 -46 -22 -23 -42 -35
-45 -30 -4 6 -35 -21 -69 -60 -35 -39 -56 -70 -48 -70 8 0 26 17 41 39 36 51
76 89 76 71 0 -8 22 7 48 33 79 78 86 59 12 -38 -27 -36 -50 -68 -50 -71 0 -2
26 26 59 63 32 38 71 79 86 93 l27 25 -84 7 c-45 4 -155 10 -243 13 l-160 7
-32 -51z"/>
<path d="M3640 1727 c-80 -5 -177 -9 -217 -10 -39 -1 -74 -5 -77 -8 -3 -3 -8
-20 -10 -37 -2 -18 -10 -40 -17 -49 -13 -17 -12 -17 4 -4 15 12 20 12 27 1 4
-7 15 -10 24 -7 20 8 21 -6 2 -22 -7 -6 -11 -22 -8 -36 4 -23 1 -25 -34 -27
-22 0 -52 -3 -69 -5 -48 -6 -68 -5 -74 4 -9 12 -49 9 -63 -5 -19 -19 -31 -14
-25 9 5 18 1 17 -25 -10 -28 -29 -58 -41 -58 -23 0 4 14 25 32 47 l31 40 -46
-44 c-26 -25 -50 -42 -53 -38 -4 3 12 31 35 62 58 77 34 69 -28 -9 -29 -36
-57 -67 -64 -69 -6 -3 74 -3 178 -1 477 11 627 14 863 14 l252 1 0 108 0 109
-112 6 c-225 11 -326 12 -468 3z"/>
<path d="M1397 1708 c-8 -30 -1 -35 13 -9 10 20 40 30 40 14 0 -5 -9 -21 -21
-38 -29 -44 -64 -113 -47 -95 8 8 38 45 66 83 l52 67 -49 0 c-42 0 -49 -3 -54
-22z"/>
<path d="M1778 1721 c-32 -5 -43 -15 -78 -70 -23 -35 -39 -65 -36 -68 2 -2 22
19 44 49 43 58 69 84 78 75 3 -3 0 -15 -6 -27 -17 -33 -9 -29 31 12 39 40 38
41 -33 29z"/>
<path d="M1853 1700 c-6 -16 -11 -30 -10 -30 1 0 15 14 30 30 25 26 26 30 10
30 -12 0 -23 -11 -30 -30z"/>
<path d="M1895 1703 c-39 -51 -37 -58 4 -18 45 43 47 45 29 45 -7 0 -22 -13
-33 -27z"/>
<path d="M1511 1693 c-16 -37 -66 -96 -57 -68 6 19 6 19 -8 1 -33 -42 -98
-106 -108 -106 -6 0 -8 9 -5 20 7 26 3 25 -17 -5 l-16 -25 39 0 c36 0 41 4 65
44 27 47 55 74 43 42 -12 -31 12 -6 53 54 42 62 46 70 31 70 -5 0 -14 -12 -20
-27z"/>
<path d="M2499 1698 c-7 -13 -36 -56 -66 -95 -29 -40 -51 -73 -48 -73 2 0 41
38 86 85 45 47 88 85 95 85 24 0 15 -31 -21 -76 -57 -69 -40 -63 29 10 40 44
69 67 78 63 8 -3 21 -1 29 4 9 5 -14 9 -63 9 -42 0 -83 3 -91 6 -10 3 -20 -3
-28 -18z"/>
<path d="M1560 1644 c-46 -72 -48 -98 -4 -37 15 21 41 53 58 71 28 30 28 32 9
32 -15 0 -33 -19 -63 -66z"/>
<path d="M1661 1667 c-13 -23 -20 -37 -15 -32 5 6 22 25 38 43 20 21 25 32 15
32 -8 0 -25 -19 -38 -43z"/>
<path d="M3116 1664 c-21 -25 -37 -47 -35 -49 2 -1 28 19 57 46 37 34 48 49
35 49 -10 -1 -35 -21 -57 -46z"/>
<path d="M3195 1691 c-3 -10 -21 -32 -40 -50 -19 -17 -35 -37 -35 -43 0 -6 1
-9 3 -7 2 2 27 30 57 62 33 36 47 57 37 57 -9 0 -18 -8 -22 -19z"/>
<path d="M3229 1673 c-67 -72 -73 -88 -11 -28 34 33 62 61 62 62 0 12 -21 -3
-51 -34z"/>
<path d="M3252 1646 c-85 -88 -78 -97 8 -11 39 38 70 71 70 72 0 14 -27 -7
-78 -61z"/>
<path d="M2405 1633 c-37 -37 -80 -85 -97 -105 l-30 -38 30 0 c20 0 32 7 39
23 6 13 39 58 73 100 34 43 60 80 57 83 -2 3 -35 -26 -72 -63z"/>
<path d="M2720 1691 c0 -5 -21 -37 -46 -70 -62 -82 -50 -89 13 -9 64 83 67 88
49 88 -9 0 -16 -4 -16 -9z"/>
<path d="M2816 1684 c-10 -25 1 -29 14 -5 6 12 7 21 1 21 -5 0 -12 -7 -15 -16z"/>
<path d="M2841 1665 c-43 -49 -39 -59 5 -11 19 21 33 40 31 42 -2 3 -18 -11
-36 -31z"/>
<path d="M3015 1692 c-5 -4 -25 -27 -44 -52 l-34 -45 51 50 c29 27 52 51 52
52 0 6 -15 3 -25 -5z"/>
<path d="M3049 1678 c-6 -13 -26 -41 -44 -63 -52 -66 -50 -74 4 -13 28 31 64
66 79 77 l27 20 -27 1 c-18 0 -31 -7 -39 -22z"/>
<path d="M2864 1647 c-21 -24 -58 -67 -82 -95 -43 -51 -70 -68 -58 -35 6 15 4
14 -14 -2 -24 -22 -12 -35 35 -34 26 0 33 6 53 49 13 27 44 72 69 100 25 28
43 53 41 56 -3 2 -23 -15 -44 -39z"/>
<path d="M2888 1631 c-41 -51 -80 -116 -51 -86 113 118 135 145 117 144 -11 0
-40 -26 -66 -58z"/>
<path d="M1321 1627 c-12 -20 -28 -40 -36 -44 -17 -10 -31 -73 -16 -73 6 0 11
7 11 16 0 9 16 38 36 65 20 27 34 54 32 61 -2 6 -14 -5 -27 -25z"/>
<path d="M1569 1597 c-46 -50 -59 -60 -70 -50 -10 10 -16 10 -28 -1 -9 -8 -25
-16 -36 -19 -11 -2 12 -5 50 -6 l70 -1 22 48 c12 26 30 57 39 70 29 40 10 23
-47 -41z"/>
<path d="M1769 1618 c-18 -24 -45 -57 -61 -74 l-29 -31 37 -6 c21 -4 39 -5 40
-4 1 1 5 13 9 26 5 16 4 21 -4 17 -20 -13 -12 16 19 65 37 60 32 63 -11 7z"/>
<path d="M2458 1576 c-43 -47 -78 -87 -78 -90 0 -3 8 -6 19 -6 11 0 36 23 62
58 23 31 54 72 67 90 45 60 8 32 -70 -52z"/>
<path d="M2599 1573 c-35 -43 -73 -79 -83 -81 -15 -3 -16 -1 -7 17 6 11 29 41
52 67 22 25 38 49 35 51 -3 3 -18 -10 -33 -28 -15 -19 -45 -53 -67 -76 l-39
-43 79 0 c79 0 79 0 97 33 l19 32 -24 -22 c-26 -25 -48 -30 -48 -11 0 6 21 38
46 70 69 88 47 80 -27 -9z"/>
<path d="M1955 1588 c-74 -97 -70 -88 -32 -88 21 0 37 6 40 14 4 10 0 12 -15
8 -19 -4 -19 -3 -8 19 7 13 26 41 42 62 16 20 26 37 21 37 -5 0 -27 -24 -48
-52z"/>
<path d="M2135 1589 c-82 -83 -119 -92 -70 -17 l27 43 -56 -55 c-31 -30 -56
-56 -56 -57 0 -2 26 -3 59 -3 l58 0 39 57 c70 103 70 105 -1 32z"/>
<path d="M1680 1577 c-44 -59 -47 -67 -25 -67 8 0 15 8 15 19 0 10 14 35 30
56 17 21 30 39 30 41 0 12 -14 -2 -50 -49z"/>
<path d="M1887 1575 c-37 -43 -76 -62 -63 -30 8 21 4 19 -29 -15 l-29 -30 45
0 c37 0 47 4 61 28 9 15 26 42 38 60 31 45 21 40 -23 -13z"/>
<path d="M2870 1555 c-29 -36 -50 -68 -48 -70 3 -3 28 25 57 61 29 36 51 68
48 70 -2 3 -28 -25 -57 -61z"/>
<path d="M3254 1598 l-19 -23 23 19 c12 11 22 21 22 23 0 8 -8 2 -26 -19z"/>
<path d="M2257 1552 c-49 -50 -56 -62 -34 -62 13 0 92 98 85 106 -2 2 -25 -18
-51 -44z"/>
<path d="M1611 1551 c-24 -33 -28 -56 -5 -26 20 26 36 55 30 55 -3 0 -14 -13
-25 -29z"/>
<path d="M2897 1512 c-18 -20 -22 -32 -9 -32 4 0 12 11 19 25 13 30 12 31 -10
7z"/>
<path d="M2650 1495 c-10 -12 -10 -15 4 -15 9 0 16 7 16 15 0 8 -2 15 -4 15
-2 0 -9 -7 -16 -15z"/>
<path d="M1360 1390 c0 -11 5 -20 10 -20 6 0 10 9 10 20 0 11 -4 20 -10 20 -5
0 -10 -9 -10 -20z"/>
<path d="M4140 1390 c0 -11 5 -20 10 -20 6 0 10 9 10 20 0 11 -4 20 -10 20 -5
0 -10 -9 -10 -20z"/>
<path d="M1260 1390 c-12 -22 -5 -76 10 -85 30 -19 57 34 37 74 -16 33 -33 37
-47 11z"/>
<path d="M3942 1398 c-17 -17 -15 -73 3 -88 33 -28 60 34 35 81 -12 22 -21 24
-38 7z"/>
<path d="M4041 1379 c-9 -26 -8 -37 4 -56 18 -27 28 -29 45 -7 10 11 11 25 4
52 -12 48 -38 54 -53 11z"/>
<path d="M1430 1319 c0 -11 5 -17 10 -14 6 3 10 13 10 21 0 8 -4 14 -10 14 -5
0 -10 -9 -10 -21z"/>
<path d="M4210 1320 c0 -11 5 -20 10 -20 6 0 10 9 10 20 0 11 -4 20 -10 20 -5
0 -10 -9 -10 -20z"/>
</g>
</svg>
