<?xml version="1.0" encoding="UTF-8"?>
<svg version="1.1" viewBox="0 0 1600 1600" width="500" height="500" xmlns="http://www.w3.org/2000/svg">
<path transform="translate(662,150)" d="m0 0h19l5 1h13l1 2-1 2 2 1 4 3 7 2v-3l3 1 1 5h2v-2h2v5l4 2 1-3h2v6l3 5 2-1 5 5v5h-4l-1 2h-2l1 4 7 1 1 1v6l-3 1v2h2l1 9 1 2-2 5 3 1 1 5-2 2v5l3 2-1 3-4 1 2 5 1 2-7 14-7 8-5 11-8 31-8 19-4 9-1 5h83l13 2 6 5 2 5 2 20 7 9 7 14 5 24 6 27 9 31 5 12 5 11 2 12 2 23 5 25 11 33 9 25 12 43 14 54 12 40 9 29 6 25 1 7v26l-3 19-1 18 2 23 1 12-3 14-8 16-7 10-7 6-5 2-12 1-16-2-15-5-10-6-8-7-9-11-11-14-13-18-36-57-6-8-5-4-13-5v15l-4 44-9 66-8 53-4 23-7 30-6 16-7 15-3 14v16l5 14 7 17 8 32 6 16 10 18 2 7v11l-4 12-5 8-7 7-10 6-16 6-3 3-5 11-4 15v20l4 20 2 17 2 79v33l-2 12-4 6-4 3-19 4-2 1-6 26-9 45-7 25-2 6h-340l1-18 5-49v-13l-35-2-22-4-16-8-5-6-1-3 1-15 2-10v-15l-1-12-2-44-3-21-4-21v-17l5-30 7-34-1-8-4-10-5-22-2-13 3-12 9-19 10-18 13-24 8-19 9-29 9-21 7-15 2-5-20 4h-18l-9-6-11-13-8-13-7-13-13-18-10-18-7-10-5-12-5-20-2-21-2-31-2-48-3-34-1-20v-53l3-23 5-19 9-19 15-30 8-11 9-11 9-10 11-13 11-14 8-11 11-18 13-17 10-13 10-11 7-8 7-7 11-9 14-7 15-3 36-4 20-4 19-6 28-7 23-8 6-4 4-5 5-11 7-28 4-22v-9l-8-17-2-22v-15l-4-23 1-14 1-3 1-32-3-16 1-12 3-3v3l3-1 3-6-5 3 2-4 4-3v4h6l3-2v-7l6-2-1-5 5-9 5-1 2-4 1-3-2-5 5-4 4-7 19-7 13-4 6-2h11l15 2h12l8-1h30l4-2zm55 27 2 7 4 3-3-9zm12 2m1 1m1 2m1 1m3 29m-234 3m-1 2m183 201-5 4v2l-4 2-12 10-15 9-14 7v18l3 6 7 8 18 12 15 8 6 3v-9l-1-13 1-38 2-29zm124 33-1 8-1 31 5-1 2-4v-12l-3-19zm-488 248-21 10-24 8-12 7-6 5-2 39-6 46-5 51-1 14v29l4 15 5 12 6 8 7 5 14 4 4-1 4-22 12-40 9-27 8-22 15-50 4-16v-25l-2-26-3-15-5-9z" fill="#25232A"/>
<path transform="translate(662,150)" d="m0 0h19l5 1h13l1 2-1 2 2 1 4 3 7 2v-3l3 1 1 5h2v-2h2v5l4 2 1-3h2v6l3 5 2-1 5 5v5h-4l-1 2h-2l1 4 7 1 1 1v6l-3 1v2h2l1 9 1 2-2 5 3 1 1 5-2 2v5l3 2-1 3-4 1 2 5 1 2-7 14-7 8-5 11-8 31-8 19-4 9-2 6h-2v2l-5 5-1 98-1 67h-3l-6-7-2-16 1-45 2-28-3 3h-2v2l-11 9-13 9-20 10v18l1 4-2 7-5 22-7 14-8 8-2 1-3 5-3 3h-2v2l-10 6-25 10-16 5-15 2h-30l-14-1-8-2v-2l-9-3-6-4-8-9 1-4h2l2-5 3-5v-7l-4-7-4-19v-10l4-13 10-12 3-3 7-6 6-13 7-28 4-22v-9l-8-17-2-22v-15l-4-23 1-14 1-3 1-32-3-16 1-12 3-3v3l3-1 3-6-5 3 2-4 4-3v4h6l3-2v-7l6-2-1-5 5-9 5-1 2-4 1-3-2-5 5-4 4-7 19-7 13-4 6-2h11l15 2h12l8-1h30l4-2zm55 27 2 7 4 3-3-9z" fill="#996B60"/>
<path transform="translate(808,376)" d="m0 0 5 5 8 16 5 24 6 27 9 31 5 12 5 11 2 12 2 23 5 25 11 33 9 25 12 43 14 54 12 40 9 29 6 25 1 7v26l-3 19-1 18 2 23 1 12-3 14-8 16-7 10-7 6-5 2-12 1-16-2-15-5-10-6-8-7-9-11-11-14-13-18-36-57-4-7 20-2 31-11 5-3 2-5v-44l-3-58-1-28-3-20-3-13-7-10-12-13-7-8-8-13-3-16-7-11-11-8-14-6-20-6-9-2-3-3-2-4 1-6 10-5h2l-6-13-10-2-7-3-1-2 1-9 5-5 20-7 9-6 9-2 12 1 10 6 4 6 6 8 10 7 15 5-2-7-5-5-12-10-6-4-5-5-14-6-8-5-11-5-8-5-20-5-8-6-2-2v-6l2-4 6-3 6 1 8 4 7-2 12 1v2l5 1 16 7 9 2 1-7 3 3 2 7 11 8 8 8 3 1 3 3v2l5-2 2-12 1 4 5 2 4 4h2v-5l-2-3v-3h-2l-3-5v-15l-1-4-1-16-1-13-1-21-2-12-1-9h-2z" fill="#9A6C60"/>
<path transform="translate(186,668)" d="m0 0h1l1 11v14l3 7 3 5v2h2l8 14 7 9v2h2v2l5 1 26 1 9-4 3-1v22l-2 24-5 37-5 51-1 14v29l4 15 5 12 5 7 7 5 17 5v13l1 9 4 1v2l5 2 12 7v2l-6-1-8-4-1 2 3 1 4 4 4 3v2l-6 1 5 5-1 8 3 10 3 3 6 10 1 6h-4l-5-6v1l-1 4 3-1 3 3 1 7 1 12h-3l-1-1-1-11-1-2-1 16-1 2-8 1h-4l-20 4h-18l-9-6-11-13-8-13-7-13-13-18-10-18-7-10-5-12-5-20-2-21-2-31-2-48-3-34-1-20v-53l3-23 5-19 9-19z" fill="#9A6C60"/>
<path transform="translate(808,376)" d="m0 0 5 5 8 16 5 24 6 27 9 31 5 12 5 11 2 12 2 23 5 25 11 33 9 25 12 43 14 54 12 40 9 29 6 25 1 7v26l-3 19-1 18 2 23 1 12-3 14-8 16-7 10-4 4h-2l-2-13-1-6-4-7-1-12v-13l-3-4-2-5-4-6-4-14-2-5-2-16-1-9-1-23-1-6v-15l-1-10-2-6-5-20-2-9-4-17-2-10-1-9-4-11-4-14-2-6v-10l2-5 2-1 1-9-3-5-3-10-5-9-5-4-5-5-17-13v-2h-2v-2h-2l-3-10-1-5-3-7-5-8-1-11 2-4h7v-2h2l1-5h2v-6h-2l-1-4h-2l-4-4v-2l-5-2-9-3h-6l-2-4-6-3v-2h-2l-7-10-3-1-3-4v-9l1-1 7 1 7 6 10 4 13 4-2-7-5-5-12-10-6-4-5-5-14-6-8-5-11-5-8-5-20-5-8-6-2-2v-6l2-4 6-3 6 1 8 4 7-2 12 1v2l5 1 16 7 9 2 1-7 3 3 2 7 11 8 8 8 3 1 3 3v2l5-2 2-12 1 4 5 2 4 4h2v-5l-2-3v-3h-2l-3-5v-15l-1-4-1-16-1-13-1-21-2-12-1-9h-2z" fill="#B58D8C"/>
<path transform="translate(456,1481)" d="m0 0h2l4 7 17 7 27 5 5 1 32 1 21-1 25-2h72l-14 70-7 25-2 6h-243v-2l6-3 5-5h2l1-4h2l1-13 2-3 4-13 2-6 5-2 1-6 5-9 4-7 3-3 2-6 2-1v-6l6-8 1-2h2l2-5 2-4h2v-4z" fill="#996B5F"/>
<path transform="translate(662,150)" d="m0 0h19l5 1h13l1 2-1 2 2 1 4 3 7 2v-3l3 1 1 5h2v-2h2v5l4 2 1-3h2v6l3 5 2-1 5 5v5h-4l-1 2h-2l1 4 7 1 1 1v6l-3 1v2h2l1 9 1 2-2 5 3 1 1 5-2 2v5l3 2-1 3-4 1 2 5 1 2-7 14-7 8-5 11-1 4-3-1v-3h-2l-1-6v-11l-8-20-8-11-5-5-5-4v-2l-7-2-11-8-10-2-9-2h-13l-15 2-10 1-10 4-7 7-6 13h-2l-2 4-11 9-14 14-5 11-10 20-5 6-1 3h-2v2l-3 1-2-14-5-5-5-3-4-4h-12l-6 5-7 15-1 10-3 1-2-9 1-14 1-3 1-32-3-16 1-12 3-3v3l3-1 3-6-5 3 2-4 4-3v4h6l3-2v-7l6-2-1-5 5-9 5-1 2-4 1-3-2-5 5-4 4-7 19-7 13-4 6-2h11l15 2h12l8-1h30l4-2zm55 27 2 7 4 3-3-9z" fill="#25232A"/>
<path transform="translate(186,668)" d="m0 0h1l1 11v14l3 7 3 5v2h2l8 14 7 9v2h2v2l5 1 26 1 9-4 3-1v22l-2 24-5 37-5 51-1 14v29l4 15 5 12 5 7 7 5 17 5v13l1 9 4 1v2l5 2 12 7v2l-6-1-8-4-1 2 3 1 4 4 4 3v2l-6 1 5 5-1 8 3 10 3 3 6 10 1 6h-4l-5-6v1l-1 4 3-1 3 3 1 7 1 12h-3l-1-1-1-11-1-2-1 16-1 2-8 1h-4l-20 4h-18l-3-3 4-2 12-1v-6l3-2 12 2 1-7 2-10 4-4 7-3v-6l-3-10-6-9v-2h-2l-3-9-4-10v-3l-4-2-2-6-3-6-7-6-4-7-3-2v-2l-4-1-6-5-4-6v-3h-2l-7-8-6-4v-2h-2l-5-15h-2l-7-7-3-10-1-7-1-1v-13l-4-10-4-4-2-10-5-11-2-7-2-21-3-12v-17l1-17-1-7 1-8-1-3 2-9 3-6v-5l1-1 1-15-1-8-1-22z" fill="#745249"/>
<path transform="translate(689,1277)" d="m0 0 4 1-6 16-2 9v20l4 20 2 17 2 79v33l-2 12-4 6-4 3-19 4-3 1h-49v-1l10-1-9-2-3-1-2-3 1-8 3-7 3-1 4-12v-7l-2-6 1-13 4-11 6-15 2-13 1-10v-11l-2-5v-9l-2-9-5-3-1-10 5 5-2-4-2-3 1-14 4-7 1-11 4-5 9-6 8-5 14-7 12-2 10-1z" fill="#353242"/>
<path transform="translate(455,1464)" d="m0 0h1l1 21 2 5h-2v2h-2l-2 6-2 3h-2l-2 5-4 6v5l-3 1-2 8-3 1-2 5-5 10-3 7-5 2-1 6-4 13-2 3-2 13h-2l-1 4h-2l-2 4-7 4h-2v2h-97l1-18 5-49 1-13 2 1 35-6 32-9 18-6 30-12 8-6 19-12 4-2z" fill="#523F40"/>
<path transform="translate(743,819)" d="m0 0 4 3 2 4v17l-4 44-9 66-8 53-4 23-7 30-6 16-1 2h-2l-2-6-2-2-11-1-7-6v-3l-3-5-5-3-5 2-4 1-3-2-2-13-3-8-4-5-3-6h-4l1 1-1 19-2 2 2 1v13l2 4v5l-4 1h-2v2h2l-1 4-3-4 1-4 4-2v-3l-2 4h-33l-2-1v-26h2l-1-10 2-5h18l8 1v1h-11v2h5l2 1v-2l11-1-1-1-30-2v-2l35-1v-2h-2v2h-35l-1-4h34l-3-5-2-4h-2l-4-5-5-12 3-9 3-2 10-1 3-3h2l2-9 3-5 5-1 7 1 6 5 3 5 1 12-3 9-5 8v16l3 10 5 5v2h2v2l3-1 4-6 3-5 5-10 6-4 2-6-3-9-1-13-4-10-1-12 3-20 2-9 2-16 2-9 4-7 6-14v-7l8-15 6-12 4-13 3-8 4-6z" fill="#353243"/>
<path transform="translate(639,204)" d="m0 0h13l17 3 12 8 8 4v2l4 2 4 4v2l4 2 7 10 8 20v17h2l2 4-1 7-3 9-2 1-2-5-4-1-6-1-8-4-4-4 1-1 7 1 5 3 7 3 1-7 1-6v-17l-6-10-9-10-8-8-9-3-12-5-9-3-7 1-1 5-1 6-3 4-13 5-2 4 18 9 10 9 3 9-1 11-1 15-5 6-5 10-2 3h-2l-1 3-7 2v2l-4 1-1 7 2 1v2h6l5-3 9 1v2l4 1-1 4h-2l-1 3h-13l-3 1-8-2-2-4h-2l-7-11 1-7 2-4 1-11-1-3-4-2-8-5-17-9-6-5-3-1-1-5 2-4 8-1 4-2 7 1 11 5v2l5 2 6 4 5 1 15 1 3-10-3-5-13-8-7-2h-9l-6 1h-32l-9 9-2 4-6 11-4 10-3 6-5 2-1 4-7 14-3 4h-2l-1 4-5 9h-2l-1 5-5 7-6-1-1-1-2-15-1-3 1-7-4-4v-2l-4-1-6-1-1-3-3-1-3 8h-2l-2-8v-4l2-1 1-10 8-16 6-5h12l5 5 7 4 3 4 2 13h2v-2h2l1-4 7-10 6-13 7-14 11-11h2l1-3 11-9 2-3h2l3-9 4-6 8-7 8-3 18-2z" fill="#84554E"/>
<path transform="translate(664,252)" d="m0 0 7 1 5 4 8 2 13-2 5-2 5 2 4 7v13l-2 7-2 1-14-5h-9l-2 2-1 7 3 1 1 5-5 3-3 7-1 1v8l5 10 4 3 7 3h10l1-4-6-9-3-3-2-3-1-11h2l-1-4 1-1h7l7 3 5 5v2h2l-1 6-6 15-5 11-2 6h-2v2l-5 5-1 98-1 67h-3l-6-7-2-16 1-45 2-28-3 3h-2v2l-11 9-13 9-16 8-4 1 1-3-5-6-1-4-6-3-3-5v-3h-2l-2-7 2-4 7-4 4-2h7l8 2 3-3-1-6-6-7-3-2-2-4v-8l-1-1v-6l9 1 9 4 5 6v6l4 5 4 2 4-2-1-10-1-7-4-1-3-3-2-5-2-1v-4h2l-2-5-5-1-1-5 3-6 9-3 5 5h5l2-3-1-5-4-4-2-10v-14l3-15-1-18 1-3-1-9-7-10v-5z" fill="#B58C8B"/>
<path transform="translate(606,1500)" d="m0 0h51l3 1-1 9-12 59-7 25-2 6h-61v-10l-1-6v-7l2-7-1-21-2-12-3-7-1-14 3-5 2-3 6-3 3-3 3-1z" fill="#B68E8D"/>
<path transform="translate(455,1464)" d="m0 0h1l1 21 2 5h-2v2h-2l-2 6-2 3h-2l-2 5-4 6v5l-3 1-2 8-3 1-2 5-5 10-3 7-5 2-1 6-4 13-2 3-2 13h-2l-1 4h-2l-2 4-7 4h-2v2h-19l2-4 2-3h2v-3l7-5h2l2-8v-5l-4-5-6-3-2-4-9-4-11-3-5-2-3 1v-2l-4-1-5-4-1-6 4-3 3-9 6-8 5-4 12-6 9-3h28l7-3 9-1 1-3 3-2 2-5 6-5 4-7 1-4h2l1-4 7-4z" fill="#69403C"/>
<path transform="translate(808,376)" d="m0 0 5 5 8 16 5 24 6 27 2 6v8l-2 1v7l5 17 2 6 1 4v3l-2 1-2 4h-2v2l-9-1-2-1v-2l-4-1v-2l-5-2v-2l-4-2-9-4-6-2-4 1 4 8 1 6 3 1v2l4 1v2l11 3 15 8 5 6 2 12 1 10-8 2-15-7-11-8-10-8-5-3-1-2 11 3 6 2-2-7-5-5-12-10-6-4-5-5-14-6-8-5-11-5-8-5-20-5-8-6-2-2v-6l2-4 6-3 6 1 8 4 7-2 12 1v2l5 1 16 7 9 2 1-7 3 3 2 7 11 8 8 8 3 1 3 3v2l5-2 2-12 1 4 5 2 4 4h2v-5l-2-3v-3h-2l-3-5v-15l-1-4-1-16-1-13-1-21-2-12-1-9h-2z" fill="#996C60"/>
<path transform="translate(639,204)" d="m0 0h13l17 3 12 8 8 4v2l4 2 4 4v2l4 2 7 10 8 20v17h2l2 4-1 7-3 9-2 1-2-5-4-1-6-1-8-4-4-4 1-1 7 1 5 3 7 3 1-7 1-6v-17l-6-10-9-10-8-8-9-3-12-5-9-3-7 1-1 5-1 6-3 4-13 5-2 4 4 2 11 5 1 3 6 5 2 6-7-1-8-3-10-5-16-2-2-1-12-2-5-3h-8l-6 4-8 2-2 5-3 1-3 6-5 11-8 16-2 1-4 7-4 10-3 1-1 2-5 4h-3l-1-3v-20l-3-7-3-5v-2l-4-2-2-2v-3l-2-1 5 1 4 4 7 4 3 4 2 13h2v-2h2l1-4 7-10 6-13 7-14 11-11h2l1-3 11-9 2-3h2l3-9 4-6 8-7 8-3 18-2z" fill="#724B45"/>
<path transform="translate(286,1068)" d="m0 0 3 1-2 7v2h2l3 6v7l-3 9-3 6v24l-8 23-2 9-5 10-3 5-2 3-6 23-6 15-4 11-2 15-3 9-8 17h-2l-1 3-1-2-4-1-4-10-5-22-2-13 3-12 9-19 10-18 13-24 8-19 9-29 9-21z" fill="#27242B"/>
<path transform="translate(620,451)" d="m0 0h14v19l1 4-2 7-5 22-6 12-8 7-5 3-10 1-6 1-4 1-6-2-6-8-9-5-5-5-6-7v-2h-2l1-8 3-9 3-3 3-11v-6l2-3 11-4 7-2h26z" fill="#B58D8C"/>
<path transform="translate(629,1119)" d="m0 0h1l1 17 1 4 1 7-1 10v7l4 7 3 4v2h2l3 6 1 4-15 4 15-2 3 2 1 12 1 9-7 3 6 1-1 6-4 1-34 2 1-3 2-1-2-2v-8l-1-4v-11l2-1-4-2-1-8-7-12-4-11-2-10 2-3-3-4 1-5-1-5 1-1 30-2 1-1h-31l-1-4 7-2h24l4 1z" fill="#B48B8A"/>
<path transform="translate(183,729)" d="m0 0h1v31l2 12v7l-1 4 1 5v9l3 10 1 15 1 3h2l6 12 4 7 2 10 4 16 6 9 3 14 2 5 3 10 2 2v8l6 9v2l3 1 4 5v2l4 2-1 3 3 1v2l6 2 8 5 5 5v2h2l5 7 3 6 3 11 5 10 4 10 5 9 3 7v5l5-2 5 1 6 9 1 6h-4l-5-6v1l-1 4 3-1 3 3 1 7 1 12h-3l-1-1-1-11-1-2-1 16-1 2-8 1h-4l-20 4h-18l-3-3 4-2 12-1v-6l3-2 12 2 1-7 2-10 4-4 7-3v-6l-3-10-6-9v-2h-2l-3-9-4-10v-3l-4-2-2-6-3-6-7-6-4-7-3-2v-2l-4-1-6-5-4-6v-3h-2l-7-8-6-4v-2h-2l-5-15h-2l-7-7-3-10-1-7-1-1v-13l-4-10-4-4-2-10-5-11-2-7-2-21-3-12v-17l1-17-1-7 1-8-1-3 2-9z" fill="#84554E"/>
<path transform="translate(697,1101)" d="m0 0 4 1v18l5 14 7 17 8 32 6 16 10 18 2 7v11l-4 12-5 8-7 6v-6l1-7 3-16 1-9-4-4-1-2-15-3-5-3 1-4h10l-1-2v-13l-6-2v-2l-6-3-6-7-9-17-5-15v-13l12-22z" fill="#353243"/>
<path transform="translate(660,266)" d="m0 0 2 2 1 5-1 11-1 15-5 6-5 10-2 3h-2l-1 3-7 2v2l-4 1-1 7 2 1v2h6l5-3 9 1v2l4 1-1 4h-2l-1 3h-13l-3 1-8-2-2-4h-2l-7-11 1-7 2-4 1-11-1-3-4-2-8-5-17-9-6-5-3-1-1-5 2-4 8-1 4-2 7 1 11 5v2l5 2 6 4 5 1 15 1 3-10-3-5-3-3 4 1 8 7 2-4z" fill="#84554E"/>
<path transform="translate(186,673)" d="m0 0h2v20l3 7 3 5v2h2l8 14 7 9v2h2v2l5 1 24 1v2l-7 2-4 17-1 5-1 20-2 3-2 12-4 7-2 1h-6l-4-6v-4l1-5h-2l-1-8-2-5-8-13-2-8-1-25v-8l-2-8-1-9-5-10z" fill="#6A413D"/>
<path transform="translate(255,731)" d="m0 0h1v22l-2 24-5 37-5 51-2 37h-1l-3-11v-4h-2l-2-10-1-3v-21l-1-11-1-3 2-17 1-8v-11l2-8v-38l2-14 4-6 11-5z" fill="#9B6D61"/>
<path transform="translate(190,705)" d="m0 0 2 1 2 13 1 10v12l1 16 3 9 7 11 3 8-1 5h2v5 4l3 5h8l1-4 2-3 2-12 2-5 1-22 6-18 2 1-3 14-2 21v9l-3 21v16l-1 5-1 11 2 17-2 8-1 2-4-2-5-3-3-5-4-12 4-2-6-14-6-8-8-16-1-22-2-15-2-10v-18l1-3z" fill="#714A44"/>
<path transform="translate(459,1509)" d="m0 0 2 1 2 19v23l-2 26-3 20-1 2h-41l2-5 4-4 2-5 3-3 2-4v-2l2-1 2-10h2l1-10h2v-6l8-13 5-1v-5l-1-2 3-4v-5l3-4z" fill="#B68E8D"/>
<path transform="translate(819,660)" d="m0 0 2 2 4 20 5 79 2 34v25l-2 41-2 14 3 21 3 11v5l-6-1v-2l-4-1-4-5-3-9-3-32v-15l-3-12-4-1-5 1-10 3-1 1-20 2-2-3 20-2 31-11 5-3 2-5v-44l-3-58-1-28-3-20z" fill="#735148"/>
<path transform="translate(808,376)" d="m0 0 5 5 8 16 5 24 6 27 2 6v8l-2 1v7l5 17 2 6 1 4v3l-2 1-2 4h-2v2l-9-1-2-1v-2l-4-1v-2l-5-2v-2l-4-2-3-1-1-3 4-2 2-12 1 4 5 2 4 4h2v-5l-2-3v-3h-2l-3-5v-15l-1-4-1-16-1-13-1-21-2-12-1-9h-2z" fill="#9A6C60"/>
<path transform="translate(639,204)" d="m0 0h13l17 3 12 8 8 4v2l4 2 4 4v2l4 2 7 10 8 20v17h2l2 4-1 7-3 9-2 1-2-5-4-1-6-1-8-4-4-4 1-1 7 1 5 3 7 3 1-7 1-6v-20l-6-11-1-4h-2l-7-8-8-9-6-3-3-1v-2l-5-1-7-4-11-2-11-1-16 3-17 5-8 6-7 8-2 4-6 4-3 1-1 3-4 3h-2v2l-6 3h-2l-2 4-6 8-10 22-15 21-4-1-2-17-6-7-10-7 4-1 5 5 7 4 3 4 2 13h2v-2h2l1-4 7-10 6-13 7-14 11-11h2l1-3 11-9 2-3h2l3-9 4-6 8-7 8-3 18-2z" fill="#513E3F"/>
<path transform="translate(475,455)" d="m0 0 2 1-10 12-4 13v10l4 19 1 3 3 3v8l-6 10h-2l1 5 8 9 13 6-3 1-14-7-5-6-5-5-3-7v-11l2-11 2-13 1-20-5-1-17 3-2 1h-7l-4 2-16 2-6 3-30 5-20 6-15 6-16 4 1-2-3-1-1 3-4 2-3 5-5 1v3l-2-1 2-6 10-11h3v2l15-4 9-4 4-2 15-3 10-4h15l11-2 3-4h-5v-1l16-4 21-6 23-6z" fill="#362C2E"/>
<path transform="translate(629,1119)" d="m0 0h1l1 17 1 4 1 7-1 10v7l4 7 3 4v2h2l3 7-12-1 4-2h4l-1-2-8-2 2-1-1-4 1-3-10 2h-22l-1 2-4-11-2-10 2-3-3-4 1-5-1-5 1-1 30-2 1-1h-31l-1-4 7-2h24l4 1z" fill="#9A6C60"/>
<path transform="translate(286,1068)" d="m0 0 3 1-2 7v2h2l3 6v7l-3 9-3 6v24l-8 23-2 9-5 10-3 5-2 3-6 23-6 15-4 11-2 15-3 9-8 17h-2l-1 3-1-2-4-1-2-6 5-4 2-9 3-1 1-4 3-9 1-10 7-15 4-10 6-21 3-8h2l2 2 2-5-3-1 5-11 4-10 5-25-1-1-1-4 1-7v-10h2l1-5 3-6v-3l-3 8-3 3-2 8 1 4-2 6-3-3-2 2h-3l3-11 9-21z" fill="#363242"/>
<path transform="translate(642,200)" d="m0 0 14 1 11 3 7 3 6 5 6 3 5 1 1-4 2-1 3 1-2 9 4 5v2l4 2 7 10 4 3 3 1v2h6l2-8h2l1-8-1-5 3 1 2 16 4-1 5 3-3 8-6 9-5 6-5 11-1 4-3-1v-3h-2l-1-6v-11l-8-20-8-11-5-5-5-4v-2l-7-2-11-8-10-2-9-2h-13l-15 2-10 1-10 4-7 7-6 13h-2l-2 4-11 9-14 14-5 11-10 20-5 6-1 3h-2v2l-3 1-2-14-5-5-5-3 2-1 9 4 3 6 5-1 6-8 4-9 8-15 6-6h2v-2l5-5 7-6h2l1-3h2l2-5 5-12 8-11 12-4h14z" fill="#322A2C"/>
<path transform="translate(360,1561)" d="m0 0 11 2 14 5 2 4 3 1 1 2-1 9-8 5-5 6h-3v2h-3v3h-21v-2l-4-1-1-7h-2l-2-4-1-14 3-5 8-4z" fill="#4C3435"/>
<path transform="translate(615,1021)" d="m0 0h18l8 1v1h-11v2h5v1h11l3 2-1 4-6 2-1 1 7 2v5l2 1v13l2 4v5l-4 1h-2v2h2l-1 4-3-4 1-4 4-2v-3l-2 4h-33l-2-1v-26h2l-1-10z" fill="#2F2C39"/>
<path transform="translate(455,1464)" d="m0 0h1l1 21 2 5h-2v2h-2l-2 6-2 3h-2l-2 5-4 6v5l-3 1-2 8-3 1-2 5-5 10-3 7-5 2-1 6-4 13-2 3-2 13h-2l-1 4h-2l-2 4-7 4h-2v2h-9l2-5 4-3h2l1-4 3-3 3-5 4-13 5-9 3-9 4-7 2-6 4-8 3-3 5-15 4-5v-2l2-1 5-9 2-7 3-1v-12l3-4 3-1z" fill="#724B45"/>
<path transform="translate(599,269)" d="m0 0 7 1 11 5v2l5 2 6 4 5 1h7l6 3h2l2-4 5-1 3 2v9l-3 3h-5-4l-7 5-3 1h-8l-7-3-7-2-19-10-6-5-3-1-1-5 2-4 8-1z" fill="#724C45"/>
<path transform="translate(662,150)" d="m0 0h19l5 1h13l1 2-1 2 2 1 4 3 7 2v-3l3 1 1 5h2v-2h2v5l4 2 1-3h2v6l2 2-1 4h-3l-1 6-2 1-3-9-6-1v6l2 5h2l3 6 6 2 5 12-1 7-1 4v7l-2-4-1-4 2-4v-5l-4-7-6-5-6-9-5-7-4-9-5-6-9-4-9-1-1-1-13-1h-9l-11 1h-50l-7-2-1-2h22l8-1h30l4-2z" fill="#3C3031"/>
<path transform="translate(508,275)" d="m0 0h8l2 1 3 5 4 4 5 8 1 10v3h-2v11l-3 4h-2l-2-3-4-2v-6l5-5-1-5-4-1-8 7-3 3-1 3 6 1 3 5v3l-3-2v-2l-4-1-6-1-1-3-3-1-3 8h-2l-2-8v-4l2-1 1-10 8-16z" fill="#84554E"/>
<path transform="translate(711,277)" d="m0 0h1l-1 9-1 4-7-2-7-4h-5l4 4 9 4h6l4 3 2 3-1 7h-3l-1-4-4-2-7-3h-7v4h-2l1 6 2 6 1 4 3 1 6 9-2 5h-10l-10-5-4-5-3-7v-8l3-5 2-4 4-2-1-5-2-1v-7l3-3h9l15 5z" fill="#9A6C60"/>
<path transform="translate(186,673)" d="m0 0h2v20l3 7 3 5v2h2l8 14 7 9v2h2v2l5 1 24 1v2l-7 2-2 5-8 13-7 5-6-1-6-5-4-9-3-13-1-2-2-14-5-13-5-10z" fill="#513E3F"/>
<path transform="translate(805,374)" d="m0 0 3 1v5h2l3 12 1 9 1 25 2 18v7l1 7v12l2 2v3h2l3 6v5l-4 1-3-3v-2l-5-2-3-13-2-13-1 5h-1l-1-38z" fill="#563D3D"/>
<path transform="translate(285,547)" d="m0 0h5l-2 5-4 1v2l-8 7-5 5-1 2h-2v2h-2l-1 3h-2l-2 5-5 6-5 3 1 2h-2l-1 6-4 6-7 6-3 1-3 7h-2l-1 6-1 2h-2v-3l-7 3-7 8-6 11-5 4-4 11h-2v2h-2l-1 5-3 1-1-2 8-16 8-12 11-13 7-8 12-14 11-14 8-11 11-18 5-5-2 9 8-5 4-6z" fill="#3A2E30"/>
<path transform="translate(708,448)" d="m0 0h8l21 3 3 2h-8l-8 2-10-5-6 1-3 1-1 10 7 6 9 3 15 4 7 5 12 5 8 5 13 6 4 3v2l4 2 13 10 8 8v6l-13-3-11-7-6-7-6-9-9-5-14-1v-2l11-2-9-5-10-4-3-3v-3l-13-1-11-4-4-2-5-7v-6l4-6z" fill="#69443F"/>
<path transform="translate(639,204)" d="m0 0h13l17 3 12 8 8 4v2l4 2 4 4v2l4 2 4 5-1 2-6-7-6-5-3-3-14-8-6-4-16-2h-11l-26 4-10 4-6 5-4 8-9 10h-2v2l-11 8-9 8-5 10-6 13-9 18-7 9-4-1-2-17-6-7-10-7 4-1 5 5 7 4 3 4 2 13h2v-2h2l1-4 7-10 6-13 7-14 11-11h2l1-3 11-9 2-3h2l3-9 4-6 8-7 8-3 18-2z" fill="#4C3435"/>
<path transform="translate(624,1132)" d="m0 0 3 1v8l1 5-7 1v2l3-1 4 1v6l-6 1 4 2h-29l-1 4-2-10 2-3-3-4 1-5-1-5 1-1z" fill="#9A6C60"/>
<path transform="translate(262,1173)" d="m0 0h2l3 4-3 10-4 16-6 15-4 11-2 15-3 9-8 17h-2l-1 3-1-2-4-1-2-6 5-4 2-9 3-1 1-4 3-9 1-10 7-15 4-10 6-21z" fill="#343142"/>
<path transform="translate(727,225)" d="m0 0 3 1 2 16 4-1 5 3-3 8-6 9-5 6-5 11-1 4-3-1v-3h-2l-1-6v-11l-8-20 1-3 6 5 3 1v2h6l2-8h2l1-8z" fill="#352C2E"/>
<path transform="translate(297,1031)" d="m0 0 4 2-1 4 3-1 3 3 1 7 1 12h-3l-1-1-1-11-1-2-1 16-1 2-8 1h-4l-20 4h-15l-2-2 1-1 14-1 2-6 3-1 9 1 5-2-1-10 2-5 8-5z" fill="#6A413D"/>
<path transform="translate(721,475)" d="m0 0h10l3 1v3l3 1v2l9 2 4 3 7 4v1l-12 1v2l-9 3-7 5-22 8-3 6v6l1 2 9 3 7 1 2 5-7-3-1 3-5-1v-2l-7-5-2-4 1-12 4-3 10-2v-2l1-4 3-3 9-3v-2l-4-2-5-12z" fill="#342B2D"/>
<path transform="translate(649,215)" d="m0 0h9l10 4 13 5 10 7 7 6-1 3-8-8-9-3-12-5-9-3-7 1-1 5-1 6-3 4-13 5-2 4 4 2 11 5-4 1-13-5-4-4-3-9 5-5 6-1 3-4v-4h2l2-4 2-2z" fill="#735148"/>
<path transform="translate(443,1474)" d="m0 0h2v2h-2l1 3-4 5-3 5-5 4-2 5-6 5-9 2-7 2h-26l-9 2-2-2 21-7 30-12 8-6z" fill="#513E3F"/>
<path transform="translate(303,1547)" d="m0 0h3l5 17 2 11 1 13 1 12h-17l1-18 3-31z" fill="#4F3637"/>
<path transform="translate(391,478)" d="m0 0h11l-2 4-7 2-11 1h-9l-13 5-12 2-12 5-9 3-7 1v-2l-5 3-10 9-7 6 2-4 11-11 11-9 14-7 15-3 36-4z" fill="#312B30"/>
<path transform="translate(608,527)" d="m0 0h2l-2 4-3 3h-2v2l-10 6-25 10-16 5-15 2h-30l-14-1-8-2 4-1h24l3-1 9 2 5-1 19-1 6-2 3-6 16-6 11-3 13-5z" fill="#765149"/>
<path transform="translate(615,1021)" d="m0 0h18l8 1v1h-11v2h5v1h11l3 2-1 4-6 2-1 1 7 2v3l-9 1h-25l-1-5 1-4-1-1 1-8z" fill="#25232A"/>
<path transform="translate(604,1095)" d="m0 0h12l14 1 5 1-1 4-10 1 8 3-1 2h-9v2l9 1-1 4-10 2-23 1 1-4 3-1-2-1 1-4 5-1-4-1 2-9z" fill="#9A6C60"/>
<path transform="translate(787,343)" d="m0 0h7l6 3 4 5 2 11v9l-1-2h-2l-1-10-2 1-2-11h-5v5l5 5v8l-2 18h-1l-2-17 2-7-6-5-3-3-2-1h-14l-8 3-9 4-3 1-1 2 1-7 3-7-18-2v-1h32l19-1z" fill="#362C2E"/>
<path transform="translate(588,249)" d="m0 0h9l7 4 9 1 10 2 11 2 11 6 7 1 4 2-5-8-4-3 1-2 8 6 4 4v7l-2 5-5-3-5-5-8-3-11-6-32-2h-11l-2 1h-6l-1 3h-2v3l-4 4-1 3h-2l-3 9-3 2-6 15-4 2v2l-4 4-1 2h-2l1-4 5-8 2-1 3-7 4-8 5-11 4-7h3l2-5 3-2 6-2z" fill="#745249"/>
<path transform="translate(747,846)" d="m0 0h1v11l-4 38-6 45-1 4-3-1 1-7-2-1 3-6v-19l-4-2v-6l3-5 3-13 2-4-1-10 4-5 1-5-1-3v-6z" fill="#2E292F"/>
<path transform="translate(830,820)" d="m0 0h1v18l-1 23-2 14 3 21 3 11v5l-6-1v-2l-4-1-4-5-3-9-3-32v-15l-3-12-3-3 5-1 2 2 2 15 1 27 2 17 3 4h2v-22l2-25 1-13z" fill="#84554E"/>
<path transform="translate(461,482)" d="m0 0h1l3 19 2 9 1 3 3 3v8l-6 10h-2l1 5 8 9 13 6-3 1-14-7-5-6-5-5-3-7v-11l2-11 2-13 1-12z" fill="#735048"/>
<path transform="translate(499,210)" d="m0 0 1 4 3 1-3 9-3 7-1 4 1 27v21h3l-1 5-4 8-1 10-3 1-2-9 1-14 1-3 1-32-3-16 1-12 3-3v3l3-1 3-6-5 3 2-4z" fill="#463536"/>
<path transform="translate(599,358)" d="m0 0h6l4 2h9l5-1 11 2 10 5v4h-20l-3 1-1-2-4-1 1 5-1 3-11-1-5-3v-2l-4-2v-7z" fill="#84554E"/>
<path transform="translate(690,1381)" d="m0 0h1l1 10 1 48v33h-1v-6h-3l-3-5-1-7 1-54 1-10z" fill="#5A4545"/>
<path transform="translate(645,210)" d="m0 0 11 1 14 3 6 4 3 1v2l-10-3-13-4h-11l-11 3-12 5h-3v2l-6 3-11 8-5 6-11 6-5 4-8 4h-2v-2l5-3h3v-2l6-4 5-5 5-2 2-5 9-10 6-4 20-6z" fill="#6A413D"/>
<path transform="translate(693,295)" d="m0 0h7l7 3 5 5v2h2l-1 6-6 15-1 2h-2l-7-11-3-3-2-3-1-11h2l-1-4z" fill="#B68E8D"/>
<path transform="translate(277,952)" d="m0 0 4 1v12l1 9 4 1v2l5 2 12 7v2l-6-1-8-4-1 2 3 1 4 4 4 3v2l-6 1 3 3-4 1-3 3-4-7-3-3-3-8-3-6-2-14-1-5h2l1-6z" fill="#4E3B3C"/>
<path transform="translate(468,674)" d="m0 0 4 1 2 3-1 5-7 7-3 4 4-1 3-4h2l2-4 5 1 2 3-1 4-5 6 5-3h4l3 5v3l-9-1-4-2-9-2-14-4v-3l3-1 2-4z" fill="#B28986"/>
<path transform="translate(611,241)" d="m0 0h7l14 8 11 4 4 1 5 5 4 6v2l-7-1-8-3-10-5-21-6-3-1-2-4 4-5z" fill="#6A413D"/>
<path transform="translate(714,1164)" d="m0 0 2 1 7 24 5 12 9 16 2 7v8l-2 2v-3h-2l-8-14-2-1v-2h-2l-3-9 1-5-2-5-1-8h-2l-3-3 1-8-1-6 1-2-2-1z" fill="#2B272D"/>
<path transform="translate(631,1077)" d="m0 0h6l3 6-2 7-5 3h-23l-5-1 1-6 2-5 17-1 2-2z" fill="#9A6C60"/>
<path transform="translate(634,474)" d="m0 0 5 5 8 7 16 10 9 5-2 1v2l-5 1-2-2-2-5-8-2-2 2-20-1-1-1 1-10 2-11z" fill="#332A2C"/>
<path transform="translate(494,331)" d="m0 0 6 4 5 4 4 5v9l-4 16-1 2h-3l-6-13-1-7z" fill="#3B2E2F"/>
<path transform="translate(455,1488)" d="m0 0 4 1-2 1v2h-2l-2 6-2 3h-2l-2 5-4 6v5l-3 1-2 8-3 1-2 5-5 10-3 7-5 2-1 6-4 13-2 3-2 13h-2l-1 4h-2l-2 4-7 4h-2v2h-3l1-3 12-9 5-16 3-10 8-16 4-7h2l1-5 1-3h2l1-4 5-8 3-9h2l1-7 3-5 5-1 1-4h2z" fill="#84554E"/>
<path transform="translate(298,1022)" d="m0 0 5 1 6 9 1 6h-4l-5-6-5 1-5 5-5 2-1 8 1 4-1 3-5 3-10-1-2 1-1 5-1 1-14 1 1 2-5-1-1-3 4-1 12-1v-6l3-2 12 2 1-7 2-10 4-4 9-3v-7z" fill="#745148"/>
<path transform="translate(518,298)" d="m0 0 5 2 1 5-4 5h-2l1 6 2 1 1 6-1 3 7 2 2 4-2 11-5 5-2-2-2-10v-12l-1-3h-2l-4-5v-3l-6-1 1-4h2l1-3z" fill="#704943"/>
<path transform="translate(629,1119)" d="m0 0h1l1 17 1 4 1 7-1 10v3h-2l-1-2-21-1v-1l20-1v-6h-7v-2l7-1-2-5 1-8h-2v-2h-31l-1-4 7-2h24l4 1z" fill="#312E3C"/>
<path transform="translate(231,896)" d="m0 0 3 2 1 4 4 6 5 5 6 18 4 7v4h-8l-4-5-1-5-6-10-3-12 1-4-3-7z" fill="#744D47"/>
<path transform="translate(807,380)" d="m0 0h3l3 12 1 9 1 25 2 18v7l1 7v12l2 2v3h2l3 6v5l-4 1-3-3v-2l-5-2-2-10h1l1-5v-22l-1-13v-28l-2-3-2-15z" fill="#83544D"/>
<path transform="translate(698,1110)" d="m0 0h1l2 10 5 14 3 9-5 4-8-4-5-14 1-10 3-6z" fill="#2A262C"/>
<path transform="translate(195,707)" d="m0 0 3 4 9 14 4 5v2h2v2l5 1 14 1-4 4h-2l-2 4-4 4-4 1-5-2-5-6-2-11-5-12-4-8z" fill="#4C3435"/>
<path transform="translate(708,448)" d="m0 0h8l21 3 3 2h-8l-8 2-10-5-6 1-3 1-1 10 7 6 9 3 15 4 7 5 7 3v2l5 2 14 8 3 4-5-1-14-3h-7v-2l11-2-9-5-10-4-3-3v-3l-13-1-11-4-4-2-5-7v-6l4-6z" fill="#5F4340"/>
<path transform="translate(428,1483)" d="m0 0 1 4-1 6-5 5-5 1v2h-6v2l-3 2h-10l-1-3-14 2 2-2 21-8 15-6z" fill="#4C3435"/>
<path transform="translate(648,1044)" d="m0 0 1 2-1 3-1 7-3 1h-30l-1-4 1-5 33-1z" fill="#25232A"/>
<path transform="translate(600,277)" d="m0 0 5 1 12 4 7 2 16 3 3 4-3 4h-7l-12-3-6-2-10-4-5-4-1-4z" fill="#4C3536"/>
<path transform="translate(650,1383)" d="m0 0 3 1 1 2 1 10 2 3 3 12 2 6v12l-1 2h-2l-8-16-2-7v-23z" fill="#25232A"/>
<path transform="translate(663,1478)" d="m0 0h5l6 7-1 8 1 2-13 3h-12l3-2v-8l5-4 5-5z" fill="#534041"/>
<path transform="translate(572,152)" d="m0 0h11l-2 1 1 4-3 1-14 1-13 5-15 8-7 8-3 1-2-5 5-4 4-7 19-7 13-4z" fill="#3E3031"/>
<path transform="translate(762,539)" d="m0 0 11 3 9 6 6 5 5 5v3l-7-1-12-5-10-4-5-6-1-5z" fill="#6D443F"/>
<path transform="translate(724,537)" d="m0 0 3 3v3l-11 5-1 6 2 6 18 4 21 7 12 7 6 5-2 1-9-6-9-2v2l-2 1h-22v-1l11-1 4-1v-3l-4-1-2-2v-3l-7-1-15-4-4-5v-9l9-7 2-2z" fill="#352B2D"/>
<path transform="translate(624,1132)" d="m0 0 3 1v8l1 5-3-1h2l-1-2-32-1-1-7 1-1z" fill="#986A5F"/>
<path transform="translate(819,660)" d="m0 0 2 2 4 20 3 45 1 39v53l-3 7-11 3-3-1 12-5 3-6v-44l-3-58-1-28-3-20z" fill="#644340"/>
<path transform="translate(694,347)" d="m0 0 1 2v38l1 2-1 17v30l-1 4-1 15-2 2 1-107z" fill="#4E3C3D"/>
<path transform="translate(813,383)" d="m0 0 4 5 5 12 7 36 1 7h-2l-2 5h-2l-2-6-2-11 1-15-2-13-4-13-2-4z" fill="#B68E8D"/>
<path transform="translate(567,262)" d="m0 0 1 2-4 8-3 7-8 16-2 1-4 7-4 10-3 1-1 2-5 4h-3l-1-3v-20l-3-7-3-5 1-2 7 8 2 21 6-4 4-5 10-16 6-14 5-10z" fill="#724C45"/>
<path transform="translate(508,275)" d="m0 0h8v1l-6 2-2 1 6 3 1 4-5 4-2 8h-2l-2 5-2 4-3-1v-15l2-5-1-3 5-5z" fill="#724B45"/>
<path transform="translate(729,478)" d="m0 0 7 1 1 3 9 2 4 3 7 4v1l-12 1v2l-10 2v-2h2l-10-13z" fill="#26232A"/>
<path transform="translate(598,275)" d="m0 0 10 2 15 5v1l-9-1-11-4h-3v4l4 2 5 3 7 3 11 2 6 2h7l2-4-2-2-8-1v-1h9l4 5-4 6-7 2-12-2-15-7-8-6-5-6 1-2z" fill="#6A413D"/>
<path transform="translate(642,1213)" d="m0 0h5l-4 2 6 1-1 6-4 1-34 2 1-3 2-1-1-2 23-4z" fill="#9A6C60"/>
<path transform="translate(616,1068)" d="m0 0h24l4 1v2l-4 1v3l-3 1h-13l-6 2h-9l1-5 2-4z" fill="#9A6C60"/>
<path transform="translate(455,1464)" d="m0 0h1l1 24h-2l-1 5h-2l-1 4-5 1-2 5-2 7h-2l-2 9-6 9-1 3-2-1 4-12 2-4h2l2-10 5-6 3-5 4-7v-10l-1-5 4-5z" fill="#78554B"/>
<path transform="translate(652,282)" d="m0 0 5 1 1 1v9l-3 3h-5-4l-7 5-3 1h-8l-8-4-3-3 5 1 14 2 6-3 2-5-2-4 6 1 2-4z" fill="#724C45"/>
<path transform="translate(643,1189)" d="m0 0 4 1v5l-1 1-18 3-9 3h-9v-6l7-2 13-1v-2z" fill="#B38B89"/>
<path transform="translate(615,1021)" d="m0 0h18l8 1v1h-11v2h5v1l10 2 1 2-9 1h-22l-2-1 1-7z" fill="#513F41"/>
<path transform="translate(679,306)" d="m0 0 6 1 7 8 4 5 4 4v4l-6-1-13-7-4-7v-5z" fill="#6F4943"/>
<path transform="translate(670,1191)" d="m0 0h6l6 9 3 6-1 4h-8l-8-6-2-5 1-5 3-1z" fill="#353243"/>
<path transform="translate(474,685)" d="m0 0 5 1 2 3-1 4-5 6 5-3h4l3 5v3l-9-1-4-2-9-2-8-2 4-1 1-2 5-1 3-4h2z" fill="#AE8480"/>
<path transform="translate(469,703)" d="m0 0h6l7 4 7 1 2 3-1 5-1 2h-6l-5-2-6-1-3-2v-4h-2l1-5z" fill="#775B59"/>
<path transform="translate(302,1036)" d="m0 0 4 3 1 7 1 12h-3l-1-1-1-11-1-2-1 16-1 2h-5l-4-3 1-6h2l3-12z" fill="#9A6C60"/>
<path transform="translate(651,217)" d="m0 0 12 2 3 1v2l6 1 4 2-2 1-10-3-5-2-7 1-1 5-1 6-3 4-13 5-2 4 4 2h-3l-4-4 1-5 9-3 4-4 1-7 1-4 3-3z" fill="#84554E"/>
<path transform="translate(460,483)" d="m0 0h1l2 21-1 14-3 6-1 1v7l3 5 5 5 8 7 11 5-3 1-14-7-5-6-5-5-3-7v-11l2-11 2-13z" fill="#523D3E"/>
<path transform="translate(608,527)" d="m0 0h2l-2 4-3 3h-2v2l-10 6-25 10-9 3-4-1 7-4 2-2 7-1 3-2h3v-2l18-8 3-1v-2z" fill="#4F393A"/>
<path transform="translate(808,384)" d="m0 0h1l2 15 2 3v28l1 13v22h-1l-3-37-3-4v-30z" fill="#6A413D"/>
<path transform="translate(255,734)" d="m0 0h1v19l-2 24-1 8-3-3v-16l-1-19 3-7 2-2z" fill="#B68E8D"/>
<path transform="translate(686,1337)" d="m0 0h2l1 11-1 6-1 17-1 9-1 5-2 4-1-15v-23l1-11z" fill="#29252C"/>
<path transform="translate(747,435)" d="m0 0 8 1 4 2 7 9 2 2-5-1-7-6-14 2-7 3-1 3 2 1-10-1v-2h2v-2l9-5h2v-2z" fill="#342B2D"/>
<path transform="translate(599,1108)" d="m0 0h8l7 1 17 1-1 4-10 2-23 1 1-4 3-1-2-1z" fill="#AD837F"/>
<path transform="translate(604,1181)" d="m0 0 4 4 1 8 6 1-3 2h-2l1 13 1 4-3 2-1-2h-11l-1-1 1-7 1-2 10-1-2-6-1-11z" fill="#343141"/>
<path transform="translate(634,474)" d="m0 0 5 5 8 7 16 10 9 5-2 1v2l-5 1-2-2-2-5-6-2-4-5-11-4-6-2-3 11h-1l1-10 2-11z" fill="#523939"/>
<path transform="translate(464,1547)" d="m0 0 3 4v12l-2 9-1 14-3 14h-4l4-32 1-16h2z" fill="#81544D"/>
<path transform="translate(568,257)" d="m0 0v3l-1 3h-2l-3 9-10 20-9 14-8 7-2-1-2-21-6-7-5-3-2-4 5 3 8 7 2 3 2 17 3 1 2-4 10-14 15-30z" fill="#6A413D"/>
<path transform="translate(484,1496)" d="m0 0h10l14 3h81v1l-25 2-26 1-29-1-25-5z" fill="#654441"/>
<path transform="translate(600,1125)" d="m0 0h24l4 2-1 3-14 1h-19l-1-4z" fill="#A97E79"/>
<path transform="translate(586,439)" d="m0 0 7 1 13 3v2l3 1-2 2h-15l-12-1-3-2 2-4z" fill="#755048"/>
<path transform="translate(475,455)" d="m0 0 2 1-10 12-4 13-2 1 2-10 3-8-6 2-9 2-8-1v-2l26-8z" fill="#583B3A"/>
<path transform="translate(277,952)" d="m0 0h2v16l4 18 4 9 1 2 8 1-4 2-3 3-4-7-3-3-3-8-3-6-2-14-1-5h2l1-6z" fill="#6F4742"/>
<path transform="translate(647,254)" d="m0 0 7 4 6 6v7l-2 5-5-3-5-5-8-3-11-6-11-1v-2l13 1 14 7 7 1 4 2-5-8-4-3z" fill="#754E47"/>
<path transform="translate(717,1037)" d="m0 0h4l-1 10-5 18-2 2-2-12-1-3 1-2h2l-2-4 2-3-1-2 2-3z" fill="#2B272E"/>
<path transform="translate(319,1554)" d="m0 0 6 2 4-2 2 1v9l-5 5-1 4-4-1-3-12z" fill="#6A413D"/>
<path transform="translate(622,1116)" d="m0 0 7 1-1 4-6 2-27 1v-4l1-1 15-1z" fill="#9E7167"/>
<path transform="translate(734,497)" d="m0 0 2 1-7 5-22 8-3 6v6l1 2 9 3 7 1 2 5-7-3-1 3-5-1v-2l-7-5-2-4 1-12 4-3 12-3 13-5z" fill="#5E4340"/>
<path transform="translate(772,500)" d="m0 0 5 2 5 5 10 9 1 4-5 1-4-3-5-2-3-3-3-9z" fill="#382C2E"/>
<path transform="translate(664,216)" d="m0 0 10 3 9 2 8 6 12 13v2h2l6 11 2 4-1 3-6-10-8-9-2-5-10-8-12-6-10-4z" fill="#704943"/>
<path transform="translate(600,359)" d="m0 0 6 1 9 3-1 7-1 2-9-1-6-4-1-5z" fill="#6C443F"/>
<path transform="translate(680,1469)" d="m0 0 2 4 1 16-1 4-2 1h-7l-1-2 1-9 3-2 1-4z" fill="#27252C"/>
<path transform="translate(212,629)" d="m0 0v3l-6 11-5 4-4 11h-2v2h-2l-1 5-3 1-1-2 8-16 8-12z" fill="#3D3132"/>
<path transform="translate(614,1043)" d="m0 0h32l2 2-1 2-10 1h-23z" fill="#9A6C60"/>
<path transform="translate(270,1056)" d="m0 0 11 2 2 1-3 3 3 2-15 3h-15l-2-2 1-1 14-1 2-6z" fill="#6B4542"/>
<path transform="translate(516,275)" d="m0 0 5 1 4 4 7 4 3 4 2 13h2v-2h2l1-4 6-5-2 7-8 11-4-1-2-17-6-7-10-7z" fill="#4D3637"/>
<path transform="translate(515,554)" d="m0 0 7 2 33-1-3 2-15 2h-30l-14-1-8-2 4-1h24z" fill="#724C46"/>
<path transform="translate(804,413)" d="m0 0h1l1 11v31l-2-1-1 8-2-1v-11l1-15 1-19z" fill="#332A2C"/>
<path transform="translate(691,283)" d="m0 0 7 1 5 3 7 3 1-4v2l5-1 2 2-1 8-3 2-2-5-4-1-6-1-8-4-4-4z" fill="#734E47"/>
<path transform="translate(807,380)" d="m0 0h3l3 12 1 9 1 23v18l1 13-1 10h-1l-2-35v-28l-2-3-2-15z" fill="#794F48"/>
<path transform="translate(206,650)" d="m0 0 2 1-1 8-3 1-2 6-8 16-5 3 1-6 4-5 6-17z" fill="#332A2C"/>
<path transform="translate(826,736)" d="m0 0h1l1 9 1 21v53l-3 7-11 3-3-1 12-5 3-6v-44l-1-19z" fill="#563C3B"/>
<path transform="translate(599,269)" d="m0 0 7 1 11 5v2l3 1-3 1-10-4-2-1-13-1-1 2-2-1-2 5 8 4v2l5 2 3 3-4-1-6-4-7-4-1-5 2-4 8-1z" fill="#84554E"/>
<path transform="translate(716,261)" d="m0 0 2 4h7v-2h3l-2 6-4 9-1 4-3-1v-3h-2l-1-6z" fill="#2E292F"/>
<path transform="translate(614,1059)" d="m0 0h32l2 1-1 3h-33l-1-3z" fill="#A2766E"/>
<path transform="translate(726,1199)" d="m0 0 4 5 8 16 1 8-2-3-3-4-3-1-5-8-2-7z" fill="#5C4545"/>
<path transform="translate(779,501)" d="m0 0 4 2 13 10 8 8v6l-13-3 5-5-5-6v-2l-4-1-5-4z" fill="#734D46"/>
<path transform="translate(593,1142)" d="m0 0h33l1 3-2 1h-30l-2-1z" fill="#B58D8B"/>
<path transform="translate(363,1509)" d="m0 0h5l-4 2-9 4-13 6-8 1-7-2h-7v-1l22-4z" fill="#4C3435"/>
<path transform="translate(708,1143)" d="m0 0h2l5 16 1 6-6-5-5-6v-3h-2l-1-3-2-2h3z" fill="#594444"/>
<path transform="translate(737,481)" d="m0 0h8l4 2v2l5 2 14 8 3 4-5-1-14-3h-7v-2l11-2-9-5-10-4z" fill="#4A3636"/>
<path transform="translate(653,215)" d="m0 0 9 1 8 4 11 4 10 7 7 6-1 3-8-8-9-3-4-2-1-2-11-4-4-2-9-2z" fill="#765249"/>
<path transform="translate(605,1150)" d="m0 0h21l1 2-11 3h-20v-3l1-1z" fill="#B68E8D"/>
<path transform="translate(724,537)" d="m0 0 3 3v3l-11 5-1 6 2 6 18 4 18 6-3 1-31-8-5-4-1-2v-9l9-7 2-2z" fill="#624441"/>
<path transform="translate(828,745)" d="m0 0h1l3 50v25h-2l-2-54z" fill="#79514A"/>
<path transform="translate(605,281)" d="m0 0 10 2 13 2v2l12 2-2 4-19-4-2-2-9-2-3-2z" fill="#342B2D"/>
<path transform="translate(591,1127)" d="m0 0 2 4-1 8 16 1v1l-14 1 1 5 5 2-4 2-1 3 2 8-1 4-6-18-1-8z" fill="#2F2D3A"/>
<path transform="translate(688,1348)" d="m0 0 2 2 1 10v13l-1 6-2-1-1 5-2 6-1-4 1-5 1-10 1-20z" fill="#5F4848"/>
<path transform="translate(597,1158)" d="m0 0h29l3 2-1 1-9 1h-22z" fill="#B68E8D"/>
<path transform="translate(223,1223)" d="m0 0h1l3 9 1 12-2 5-3 1-4-18 4-2z" fill="#3D3745"/>
<path transform="translate(296,999)" d="m0 0 2 2-1 8 3 10 3 3-9 2-1-11-2-4v-6h5z" fill="#503A3B"/>
<path transform="translate(614,1027)" d="m0 0h27l5 2v1l-9 1h-22z" fill="#9A6C60"/>
<path transform="translate(647,333)" d="m0 0 9 1v2l4 1-1 4h-15l-1-1v-5z" fill="#704742"/>
<path transform="translate(508,275)" d="m0 0h8v1l-6 2-2 1 6 3 1 4-6 4 1-7-8 7-2-1v-3l1-5z" fill="#754C46"/>
<path transform="translate(647,1191)" d="m0 0h1l1 12-2-3v-2l-18 4-3 1-11 1-4 3v-5l10-2 17-4 8-1z" fill="#9A6C60"/>
<path transform="translate(451,698)" d="m0 0 7 1v3l3-3 6 2-1 3h-5v4l5 1v3l-5-1-4-2-6-8z" fill="#AD847F"/>
<path transform="translate(805,374)" d="m0 0 3 1v22l-1 19-1 5h-1z" fill="#503B3B"/>
<path transform="translate(610,1134)" d="m0 0h16v2l-12 2-21 1v-4z" fill="#B48C8B"/>
<path transform="translate(526,303)" d="m0 0 3 2v12l-3 4h-2l-4-6 2-6z" fill="#9A6C60"/>
<path transform="translate(298,1022)" d="m0 0 5 1 6 9 1 6h-4l-9-11z" fill="#9A6C60"/>
<path transform="translate(442,696)" d="m0 0 5 1 4 5 2 4 2 1v3l-5-1-3-2v-6h-2l-1 5-5-1-1-3z" fill="#AF8682"/>
<path transform="translate(603,530)" d="m0 0 2 1-13 9-19 8-4 2h-5v3l-5 2-4-1 7-4 2-2 7-1 3-2h3v-2l18-8 3-1v-2z" fill="#6A413D"/>
<path transform="translate(687,1462)" d="m0 0 2 4h3v13l-2 3-2-5-1 3-2-1-2-9h2z" fill="#29252D"/>
<path transform="translate(636,268)" d="m0 0 4 2 3 4-1 5-1 1h-7l-3-4 2-5z" fill="#B68E8D"/>
<path transform="translate(322,1578)" d="m0 0h7l2 4-2 4-4 3h-4l-2-7 1-3z" fill="#6A413D"/>
<path transform="translate(465,504)" d="m0 0h1l2 9 3 3v8l-6 10h-2v2h-2l1-5 2-5 3-6-2-8z" fill="#84554E"/>
<path transform="translate(639,253)" d="m0 0 8 1 5 5 4 6v2l-7-1-8-3-2-1 1-2h6l-1-3-6-3z" fill="#6A413D"/>
<path transform="translate(629,250)" d="m0 0 12 4 6 4-1 3h-6l-11-6v-2h-2v-2z" fill="#4E3839"/>
<path transform="translate(827,822)" d="m0 0 1 3-3 11-4 2-5-7-7-1v-1l17-3z" fill="#6E4742"/>
<path transform="translate(469,703)" d="m0 0h6l3 2v4h-4v2l3 1 1 4-6-1-3-2v-4h-2l1-5z" fill="#AE8582"/>
<path transform="translate(518,298)" d="m0 0 5 2 1 5-4 5-6-1-1 2h-2l3-9z" fill="#6B433E"/>
<path transform="translate(265,1053)" d="m0 0 7 1 2 3-6 1-1 5-1 1-14 1 1 2-5-1-1-3 4-1 12-1v-6z" fill="#7B514A"/>
<path transform="translate(599,1164)" d="m0 0h19l10 1-1 2-5 1h-24z" fill="#B58D8C"/>
<path transform="translate(708,448)" d="m0 0h8l21 3 3 2h-8l-8 2-10-5-6 1-3 1-1 4h-2l2-5z" fill="#5A3E3C"/>
<path transform="translate(713,273)" d="m0 0h2l1 5h2l2 4-1 7-3 1-1-2h-4l1-11z" fill="#513939"/>
<path transform="translate(806,830)" d="m0 0 3 1-2 3-5 1-10 3-1 1-20 2-2-3 20-2z" fill="#634541"/>
<path transform="translate(228,1198)" d="m0 0 3 1-1 6h-2l-2 14-3-1v2h-2l-1 2-1-3 7-17z" fill="#4E3F44"/>
<path transform="translate(769,544)" d="m0 0h6l4 5 1 5-7-1-7-3 1-4z" fill="#3F2F30"/>
<path transform="translate(295,1039)" d="m0 0h1v11l-2 3h-4l-3-9 2-3z" fill="#4F3637"/>
<path transform="translate(679,310)" d="m0 0 6 2 13 12v2l-5-2-10-6-4-5z" fill="#4D3637"/>
<path transform="translate(513,303)" d="m0 0 1 4-3 4h2l1-3 4 2v6h-2l-1 3-3-3v-3l-6-1 1-4h2l1-3z" fill="#724B45"/>
<path transform="translate(445,1498)" d="m0 0v3l-3 9h-2l-2 9-6 9-1 3-2-1 4-12 2-4h2l2-10z" fill="#745249"/>
<path transform="translate(615,1014)" d="m0 0h13l22 1v2h-35z" fill="#9C6E63"/>
<path transform="translate(462,1574)" d="m0 0h1l1 12-3 14h-4l3-22z" fill="#7D544C"/>
<path transform="translate(645,1217)" d="m0 0 3 1-2 3-5 1h-20l2-2 9-2z" fill="#B68E8D"/>
<path transform="translate(594,533)" d="m0 0 4 1-16 8-5 1v2l-6 3h-6l4-3h3v-2l7-4 13-5z" fill="#724B45"/>
<path transform="translate(648,1043)" d="m0 0h2v13l2 4v5l-4 1h-2v2h2l-1 4-3-4 1-4 4-2v-3h-5v-3h3v-8z" fill="#353243"/>
<path transform="translate(718,532)" d="m0 0 4 1 2 2 1 5-7 5h-3l1-6z" fill="#352B2D"/>
<path transform="translate(782,469)" d="m0 0 5 2 10 8 4-7h1v13l-4-1-9-9-7-5z" fill="#352B2D"/>
<path transform="translate(615,1036)" d="m0 0h10l16 1 3 2-29 1z" fill="#9A6C60"/>
<path transform="translate(634,484)" d="m0 0 6 2 5 2-3 6h-2l-2 2-5-7z" fill="#25232A"/>
<path transform="translate(461,482)" d="m0 0h1l3 19v11l-4 12-2-1 2-5 1-17-1-8z" fill="#724C46"/>
<path transform="translate(606,1182)" d="m0 0 7 1 8-1h10l-3 3-20 3z" fill="#9A6C60"/>
<path transform="translate(494,345)" d="m0 0 2 1 1 7h3l1 2v9l-2 3-4-9z" fill="#5B3E3E"/>
<path transform="translate(550,555)" d="m0 0h5l-3 2-15 2h-30v-1l23-1 1-1z" fill="#5A3F3D"/>
<path transform="translate(772,500)" d="m0 0 5 2 5 5 10 9 1 4-5 1 3-1-4-6-9-7v7l-2-1-3-9z" fill="#4F3738"/>
<path transform="translate(634,1052)" d="m0 0 9 1 1 2-29 1-1-3z" fill="#9A6C60"/>
<path transform="translate(615,1043)" d="m0 0 30 1-1 2-29 1z" fill="#B68E8D"/>
<path transform="translate(412,1562)" d="m0 0h1l-1 7-6 18v2l-5 3h-3l4-5 5-12 2-6z" fill="#745249"/>
<path transform="translate(288,1055)" d="m0 0 7 6-1 2-5-1-1 1h-9l4-6z" fill="#473435"/>
<path transform="translate(617,958)" d="m0 0 3 1v2l4 2 3 4v4l-5-2-5-5-1-5z" fill="#353243"/>
<path transform="translate(285,976)" d="m0 0 8 4 10 6v2l-6-1-11-6-2-4z" fill="#9A6C60"/>
<path transform="translate(516,275)" d="m0 0 5 1 4 4 7 4 3 4 1 7-3 3-1-8-6-7-10-7z" fill="#4A3537"/>
<path transform="translate(288,921)" d="m0 0 2 1 1 3v8l-1 2-4 1-2-3 3-11z" fill="#3C3745"/>
<path transform="translate(460,697)" d="m0 0 11 3v3l-3 2-1 4h2l-1 2h-2v-2l-5-1v-4l5-1 1-2-7-1z" fill="#4E3C3D"/>
<path transform="translate(762,539)" d="m0 0 11 3 1 2-7 1-5 4-3-4-1-5z" fill="#735048"/>
<path transform="translate(749,484)" d="m0 0 5 1 8 5 13 6 4 3-1 2-8-3-9-6-12-7z" fill="#734B45"/>
<path transform="translate(697,1101)" d="m0 0 4 1-1 16h-1l-1-7-3 3h-2l1-5z" fill="#483E4B"/>
<path transform="translate(828,792)" d="m0 0h1v27l-3 7-11 3-3-1 12-5 3-6z" fill="#4E3839"/>
<path transform="translate(298,1043)" d="m0 0h2v16l-4 2-3-5 4-7z" fill="#B68E8D"/>
<path transform="translate(287,970)" d="m0 0 6 1 15 8 1 3-5-1-15-8z" fill="#9A6C60"/>
<path transform="translate(734,497)" d="m0 0 2 1-7 5-16 6-8 1-3 3 1-4 3-2 12-3 13-5z" fill="#593F3D"/>
<path transform="translate(497,290)" d="m0 0 1 3-2 4v15l-1 7h-2l-2-8v-4l2-1 1-10z" fill="#6D4641"/>
<path transform="translate(281,965)" d="m0 0h1l1 6 1-2h2v2l5 2 1 5 1 2-5-2-2-1v-2l-5-1z" fill="#362C30"/>
<path transform="translate(560,545)" d="m0 0 2 1-3 5-4 4-5 1-25 1v-1l5-1 19-1 6-2 3-6z" fill="#82544D"/>
<path transform="translate(660,387)" d="m0 0 5 2 2 3-1 5-5-1-2-3v-5z" fill="#774C46"/>
<path transform="translate(613,1175)" d="m0 0h8l7 2-1 2-7 1h-6z" fill="#9A6C60"/>
<path transform="translate(603,287)" d="m0 0 14 7v2l3 1v1h-5l-12-7v-2l-2-1z" fill="#785049"/>
<path transform="translate(686,1331)" d="m0 0h1v6l-3 4-2 30-2-4 1-27 2-4h2z" fill="#544142"/>
<path transform="translate(785,508)" d="m0 0 6 3 6 9-4 3-6-1-5-5 5 2 5 1-2-5-5-5z" fill="#6D433F"/>
<path transform="translate(510,293)" d="m0 0 4 1 1 5-4 4-4 1v-5z" fill="#9A6C60"/>
<path transform="translate(608,527)" d="m0 0h2l-2 4-3 3h-2v2l-10 6-2-1 5-5 8-5z" fill="#513839"/>
<path transform="translate(616,279)" d="m0 0h6l6 4 5 1h7l2 1-1 2-13-1-5-2v-2l-6-1z" fill="#764D47"/>
<path transform="translate(283,1086)" d="m0 0 2 1-1 5-4 9h-2l1 7-2 2-2-6 3-9h3z" fill="#25232A"/>
<path transform="translate(297,1031)" d="m0 0 4 2-1 4-3 8h-1l-1-5-5 1 4-4 2-5z" fill="#584140"/>
<path transform="translate(508,283)" d="m0 0h2l-1 7-2 1-1 2-2-1-4 4v-6z" fill="#6A413D"/>
<path transform="translate(592,273)" d="m0 0h13l1 2h-9l-5 1 2 6-4-1-3-2 2-5z" fill="#745249"/>
<path transform="translate(737,928)" d="m0 0h2l-2 16-3-1 1-7-2-1z" fill="#332C31"/>
<path transform="translate(794,512)" d="m0 0 6 4 4 5v6l-9-2 3-2h2l-3-6-3-3z" fill="#83544D"/>
<path transform="translate(724,537)" d="m0 0 3 3v3l-11 5-2 9h-1v-9l9-7 2-2z" fill="#5E413F"/>
<path transform="translate(522,291)" d="m0 0 5 1 2 10h-3l-4-5z" fill="#9A6C60"/>
<path transform="translate(611,1209)" d="m0 0h18l-2 2-14 3-2 1z" fill="#95695D"/>
<path transform="translate(286,1038)" d="m0 0 3 1-3 1-1 8 1 4-1 3-5 3-4-1 5-3 1-3v-7z" fill="#724B45"/>
<path transform="translate(459,495)" d="m0 0h1v15l-4 16h-1v-7l2-11z" fill="#4C3435"/>
<path transform="translate(661,496)" d="m0 0 6 2 5 3-2 1v2l-5 1-2-2z" fill="#3E3131"/>
<path transform="translate(462,1552)" d="m0 0h1l1 14h2l-2 13-3-4z" fill="#8D5E55"/>
<path transform="translate(678,307)" d="m0 0h4v3l4 1 4 5-4-2-7-4 4 8-4-1-2-4v-5z" fill="#6D4540"/>
<path transform="translate(604,1181)" d="m0 0 4 4 1 8 6 1-3 2h-2v5l-4-5-1-11z" fill="#2D2A37"/>
<path transform="translate(717,471)" d="m0 0 12 2 7 3 6 4v1h-5l-3-2v-3l-12-2-5-2z" fill="#6D4843"/>
<path transform="translate(781,548)" d="m0 0 5 3 7 7v3l-7-1-2-2 3-1-6-7z" fill="#7B5049"/>
<path transform="translate(647,335)" d="m0 0h7l3 2v2l-11 1-2-3z" fill="#402F31"/>
<path transform="translate(731,176)" d="m0 0 5 3 1 7h-5v-3l-2-2-1-3z" fill="#554344"/>
<path transform="translate(324,1593)" d="m0 0 5 1 2 3v3h-8v-6z" fill="#6A413D"/>
<path transform="translate(624,1190)" d="m0 0h5l1 3-15 2-6-1v-1z" fill="#9A6C60"/>
<path transform="translate(461,493)" d="m0 0h1l1 14-1 11-3 6h-1v-5l2-4z" fill="#6A413D"/>
<path transform="translate(586,439)" d="m0 0 7 1 4 2-15 1-2 1 5 2v1l-7-1v-4z" fill="#84554E"/>
<path transform="translate(518,277)" d="m0 0 5 3 8 7 2 3 1 11-2-1-1-9-6-7-5-3z" fill="#6B423E"/>
<path transform="translate(291 1e3)" d="m0 0h4v2l-2 1 3 8v7l1 3h-3l-1-11-2-4z" fill="#6A423D"/>
<path transform="translate(761,492)" d="m0 0 5 2 5 5-5-1-14-3v-1l9-1z" fill="#553B3A"/>
<path transform="translate(807,380)" d="m0 0h3l2 9v12l-2-2-2-15z" fill="#724C45"/>
<path transform="translate(462,538)" d="m0 0 5 5 7 6 11 5-3 1-14-7-6-7z" fill="#6B4742"/>
<path transform="translate(700,342)" d="m0 0h16v1l-8 1-1 2h-8l-1-3z" fill="#513C3B"/>
<path transform="translate(715,287)" d="m0 0 3 2-1 8-3 2-1-7-2-4z" fill="#604747"/>
<path transform="translate(710,286)" d="m0 0 2 4 2 2-1 3-5-2-6-1 2-4 4 1 2 1z" fill="#735048"/>
<path transform="translate(628,1149)" d="m0 0 2 2v7l-22-1v-1l20-1z" fill="#25232A"/>
<path transform="translate(612,1063)" d="m0 0 3 1 16 1-1 2-18 1z" fill="#353243"/>
<path transform="translate(478,706)" d="m0 0 4 1-1 4-2 4-3-3h-3l1-5 4 2z" fill="#654B47"/>
<path transform="translate(713,257)" d="m0 0 3 4v11l-3 1z" fill="#5A403E"/>
<path transform="translate(459,1586)" d="m0 0 2 3 2-1-2 12h-4z" fill="#83574F"/>
<path transform="translate(474,700)" d="m0 0 7 3 6 1-2 3h-6l-4-3-4-2z" fill="#322A2E"/>
<path transform="translate(578,251)" d="m0 0m-1 1m-3 1h3l-1 3h-2l-2 5-5 1 2-6z" fill="#714A44"/>
<path transform="translate(290,986)" d="m0 0 8 6 1 3-5-1-5-3-1-4z" fill="#976A5E"/>
<path transform="translate(458,494)" d="m0 0h1l-1 16-1 4h-2v-8z" fill="#2F282C"/>
<path transform="translate(739,497)" d="m0 0 4 1-1 4-7 1-1-3z" fill="#B68E8D"/>
<path transform="translate(756,490)" d="m0 0 5 1 1 3-17 1v-2l11-2z" fill="#433233"/>
<path transform="translate(782,469)" d="m0 0 5 2 10 8 3 4-1 2-10-10-7-5z" fill="#5D423F"/>
<path transform="translate(424,1539)" d="m0 0v3l-10 20-1-2 4-10 6-10z" fill="#745249"/>
<path transform="translate(688,1372)" d="m0 0 2 1v6l-2-1-1 5-2 6-1-4 1-5 2-7z" fill="#4F3D40"/>
<path transform="translate(737,1235)" d="m0 0 1 4-4 10-2 1 1-9z" fill="#362E32"/>
<path transform="translate(262,1135)" d="m0 0 2 1-2 4-3 7h-2v2l-2-1 5-12z" fill="#544141"/>
<path transform="translate(285,1034)" d="m0 0 4 1-6 4-1 2v9l-2 5-1-2 1-13z" fill="#84554E"/>
<path transform="translate(753,571)" d="m0 0 5 1 14 9 2 3-5-2-8-5v-2l-6-2z" fill="#65423F"/>
<path transform="translate(708,529)" d="m0 0 14 1 1 4-7-3-1 3-5-1v-2z" fill="#4E3536"/>
<path transform="translate(779,501)" d="m0 0 4 2 11 8-3 1-7-4z" fill="#7D524B"/>
<path transform="translate(558,263)" d="m0 0 1 3-6 12h-2l1-5z" fill="#342B2D"/>
<path transform="translate(618,256)" d="m0 0 13 1 8 4v2l-6-2-4-2-11-1z" fill="#755048"/>
<path transform="translate(288,982)" d="m0 0 9 4v5l-5-2-4-4z" fill="#352C30"/>
<path transform="translate(480,711)" d="m0 0 3 3h7l-1 4h-6l-4-4z" fill="#B08784"/>
<path transform="translate(735,216)" d="m0 0 3 2 4 4-4 2-4-2-1-3z" fill="#403334"/>
<path transform="translate(228,1198)" d="m0 0 3 1-1 6h-2l-1 2-3 2 1-5z" fill="#473E4A"/>
<path transform="translate(283,988)" d="m0 0 2 1 3 8 8 1-4 2-3 3-5-8z" fill="#69413D"/>
<path transform="translate(767,544)" d="m0 0 2 1-3 5 9 3-1 2-10-4-1-4z" fill="#714742"/>
<path transform="translate(780,506)" d="m0 0 8 6 5 6-1 3-4-1h3l-4-6-7-6z" fill="#4C3435"/>
<path transform="translate(666,344)" d="m0 0 6 1-1 5h-4v-2h-2z" fill="#724843"/>
<path transform="translate(300,1023)" d="m0 0 6 4 1 6-3-1-5-6z" fill="#B28987"/>
<path transform="translate(611,525)" d="m0 0h2l-1 4-3 4h-2l-1 3-6 2 1-2h2v-2l6-5z" fill="#392E2F"/>
<path transform="translate(292,999)" d="m0 0h4v4h-5v6l-3-4v-2z" fill="#7C544C"/>
<path transform="translate(603,530)" d="m0 0 2 1-13 9-3-1 7-5h2v-2z" fill="#6B423E"/>
<path transform="translate(510,281)" d="m0 0 4 1 1 4-6 4 1-7-2-1z" fill="#714A44"/>
<path transform="translate(252,1064)" d="m0 0h10l1 3h-10l-2-2z" fill="#62403E"/>
<path transform="translate(594,533)" d="m0 0 4 1-9 5h-6l4-3z" fill="#775049"/>
<path transform="translate(601,443)" d="m0 0h5v2l3 1-2 2h-10v-1h6v-2h-2z" fill="#7B534B"/>
<path transform="translate(501,285)" d="m0 0 1 2-2 4-2 9-2 1 1-8 2-7z" fill="#96685D"/>
<path transform="translate(685,227)" d="m0 0 6 4 7 6-1 3-8-8-4-1z" fill="#755148"/>
<path transform="translate(599,1108)" d="m0 0 1 2h10v3h-9l-2-2z" fill="#9A6C60"/>
<path transform="translate(443,699)" d="m0 0 2 1v5l-4 1-3-3 1-2h3z" fill="#A9817D"/>
<path transform="translate(442,696)" d="m0 0 5 1 2 3-4 1h-2-3z" fill="#B5908C"/>
<path transform="translate(768,495)" d="m0 0h6l5 4-1 2-8-3z" fill="#784D47"/>
<path transform="translate(600,361)" d="m0 0 5 1 1 4-3 1-4-3z" fill="#483233"/>
<path transform="translate(632,247)" d="m0 0 15 6-4 1-11-4z" fill="#795149"/>
<path transform="translate(712,158)" d="m0 0 3 1 1 5h2v-2h2l-1 5-7-4z" fill="#634A47"/>
<path transform="translate(381,1504)" d="m0 0 4 1-9 4-5-1 3-2z" fill="#4F3A3B"/>
<path transform="translate(622,1116)" d="m0 0 7 1-1 4-8-1z" fill="#A67B74"/>
<path transform="translate(297,965)" d="m0 0 6 2 8 6-2 1-10-6z" fill="#9A6C60"/>
<path transform="translate(564,548)" d="m0 0h5v2h-5v3l-5 2-4-1 7-4z" fill="#5F3D3B"/>
<path transform="translate(288,1046)" d="m0 0h1l1 7h2l-1 5-4-2v-9z" fill="#563F3F"/>
<path transform="translate(627,503)" d="m0 0 1 4-5 10-4 2z" fill="#5B403E"/>
<path transform="translate(679,306)" d="m0 0 6 1 7 8h-3l-4-4-3-1v-3z" fill="#7B514A"/>
<path transform="translate(567,250)" d="m0 0m-1 1m-1 1 2 2-6 7-2 3-1-2 3-6z" fill="#2F282C"/>
<path transform="translate(682,221)" d="m0 0 8 5 4 4-1 2-6-5-7-4z" fill="#6A413D"/>
<path transform="translate(652,491)" d="m0 0 4 1 5 3v2h-5l-4-5z" fill="#553939"/>
<path transform="translate(472,709)" d="m0 0 5 3 1 4-6-1-2-2h2z" fill="#A67B74"/>
<path transform="translate(768,500)" d="m0 0 3 1v2l3 1 2 5-1 3-4-6z" fill="#714D45"/>
<path transform="translate(719,451)" d="m0 0 13 1-2 2-6 1z" fill="#795049"/>
<path transform="translate(647,333)" d="m0 0 9 1v2h-9l-4 1 1-3z" fill="#764B45"/>
<path transform="translate(701,152)" d="m0 0 2 1v2h-2z" fill="#906760"/>
<path transform="translate(520,187)" d="m0 0" fill="#B68E8D"/>
<path transform="translate(704,154)" d="m0 0" fill="#9A6C60"/>
</svg>
